<svg width="135" height="107" viewBox="0 0 135 107" fill="none" xmlns="http://www.w3.org/2000/svg">
<path d="M2 28L3.73205 31H0.267949L2 28Z" fill="#FFC887"/>
<path d="M2 42L3.73205 45H0.267949L2 42Z" fill="#FFC887"/>
<path d="M16 28L17.7321 31H14.2679L16 28Z" fill="#FFC887"/>
<path d="M16 42L17.7321 45H14.2679L16 42Z" fill="#FFC887"/>
<path d="M30 28L31.7321 31H28.2679L30 28Z" fill="#FFC887"/>
<path d="M30 42L31.7321 45H28.2679L30 42Z" fill="#FFC887"/>
<path d="M58 28L59.7321 31H56.2679L58 28Z" fill="#FFC887"/>
<path d="M58 42L59.7321 45H56.2679L58 42Z" fill="#FFC887"/>
<path d="M44 28L45.7321 31H42.2679L44 28Z" fill="#FFC887"/>
<path d="M44 42L45.7321 45H42.2679L44 42Z" fill="#FFC887"/>
<path d="M2 0L3.73205 3H0.267949L2 0Z" fill="#FFC887"/>
<path d="M2 14L3.73205 17H0.267949L2 14Z" fill="#FFC887"/>
<path d="M16 0L17.7321 3H14.2679L16 0Z" fill="#FFC887"/>
<path d="M16 14L17.7321 17H14.2679L16 14Z" fill="#FFC887"/>
<path d="M30 0L31.7321 3H28.2679L30 0Z" fill="#FFC887"/>
<path d="M30 14L31.7321 17H28.2679L30 14Z" fill="#FFC887"/>
<path d="M58 0L59.7321 3H56.2679L58 0Z" fill="#FFC887"/>
<path d="M58 14L59.7321 17H56.2679L58 14Z" fill="#FFC887"/>
<path d="M44 0L45.7321 3H42.2679L44 0Z" fill="#FFC887"/>
<path d="M44 14L45.7321 17H42.2679L44 14Z" fill="#FFC887"/>
<path d="M77 28L78.7321 31H75.2679L77 28Z" fill="#FFC887"/>
<path d="M77 42L78.7321 45H75.2679L77 42Z" fill="#FFC887"/>
<path d="M91 28L92.7321 31H89.2679L91 28Z" fill="#FFC887"/>
<path d="M91 42L92.7321 45H89.2679L91 42Z" fill="#FFC887"/>
<path d="M105 28L106.732 31H103.268L105 28Z" fill="#FFC887"/>
<path d="M105 42L106.732 45H103.268L105 42Z" fill="#FFC887"/>
<path d="M133 28L134.732 31H131.268L133 28Z" fill="#FFC887"/>
<path d="M133 42L134.732 45H131.268L133 42Z" fill="#FFC887"/>
<path d="M119 28L120.732 31H117.268L119 28Z" fill="#FFC887"/>
<path d="M119 42L120.732 45H117.268L119 42Z" fill="#FFC887"/>
<path d="M77 0L78.7321 3H75.2679L77 0Z" fill="#FFC887"/>
<path d="M77 14L78.7321 17H75.2679L77 14Z" fill="#FFC887"/>
<path d="M91 0L92.7321 3H89.2679L91 0Z" fill="#FFC887"/>
<path d="M91 14L92.7321 17H89.2679L91 14Z" fill="#FFC887"/>
<path d="M105 0L106.732 3H103.268L105 0Z" fill="#FFC887"/>
<path d="M105 14L106.732 17H103.268L105 14Z" fill="#FFC887"/>
<path d="M133 0L134.732 3H131.268L133 0Z" fill="#FFC887"/>
<path d="M133 14L134.732 17H131.268L133 14Z" fill="#FFC887"/>
<path d="M119 0L120.732 3H117.268L119 0Z" fill="#FFC887"/>
<path d="M119 14L120.732 17H117.268L119 14Z" fill="#FFC887"/>
<path d="M77 89L78.7321 92H75.2679L77 89Z" fill="#FFC887"/>
<path d="M77 103L78.7321 106H75.2679L77 103Z" fill="#FFC887"/>
<path d="M91 89L92.7321 92H89.2679L91 89Z" fill="#FFC887"/>
<path d="M91 103L92.7321 106H89.2679L91 103Z" fill="#FFC887"/>
<path d="M105 89L106.732 92H103.268L105 89Z" fill="#FFC887"/>
<path d="M105 103L106.732 106H103.268L105 103Z" fill="#FFC887"/>
<path d="M133 89L134.732 92H131.268L133 89Z" fill="#FFC887"/>
<path d="M133 103L134.732 106H131.268L133 103Z" fill="#FFC887"/>
<path d="M119 89L120.732 92H117.268L119 89Z" fill="#FFC887"/>
<path d="M119 103L120.732 106H117.268L119 103Z" fill="#FFC887"/>
<path d="M77 61L78.7321 64H75.2679L77 61Z" fill="#FFC887"/>
<path d="M77 75L78.7321 78H75.2679L77 75Z" fill="#FFC887"/>
<path d="M91 61L92.7321 64H89.2679L91 61Z" fill="#FFC887"/>
<path d="M91 75L92.7321 78H89.2679L91 75Z" fill="#FFC887"/>
<path d="M105 61L106.732 64H103.268L105 61Z" fill="#FFC887"/>
<path d="M105 75L106.732 78H103.268L105 75Z" fill="#FFC887"/>
<path d="M133 61L134.732 64H131.268L133 61Z" fill="#FFC887"/>
<path d="M133 75L134.732 78H131.268L133 75Z" fill="#FFC887"/>
<path d="M119 61L120.732 64H117.268L119 61Z" fill="#FFC887"/>
<path d="M119 75L120.732 78H117.268L119 75Z" fill="#FFC887"/>
<path d="M2 89L3.73205 92H0.267949L2 89Z" fill="#FFC887"/>
<path d="M2 103L3.73205 106H0.267949L2 103Z" fill="#FFC887"/>
<path d="M16 89L17.7321 92H14.2679L16 89Z" fill="#FFC887"/>
<path d="M16 103L17.7321 106H14.2679L16 103Z" fill="#FFC887"/>
<path d="M30 89L31.7321 92H28.2679L30 89Z" fill="#FFC887"/>
<path d="M30 103L31.7321 106H28.2679L30 103Z" fill="#FFC887"/>
<path d="M58 89L59.7321 92H56.2679L58 89Z" fill="#FFC887"/>
<path d="M58 103L59.7321 106H56.2679L58 103Z" fill="#FFC887"/>
<path d="M44 89L45.7321 92H42.2679L44 89Z" fill="#FFC887"/>
<path d="M44 103L45.7321 106H42.2679L44 103Z" fill="#FFC887"/>
<path d="M2 61L3.73205 64H0.267949L2 61Z" fill="#FFC887"/>
<path d="M2 75L3.73205 78H0.267949L2 75Z" fill="#FFC887"/>
<path d="M16 61L17.7321 64H14.2679L16 61Z" fill="#FFC887"/>
<path d="M16 75L17.7321 78H14.2679L16 75Z" fill="#FFC887"/>
<path d="M30 61L31.7321 64H28.2679L30 61Z" fill="#FFC887"/>
<path d="M30 75L31.7321 78H28.2679L30 75Z" fill="#FFC887"/>
<path d="M58 61L59.7321 64H56.2679L58 61Z" fill="#FFC887"/>
<path d="M58 75L59.7321 78H56.2679L58 75Z" fill="#FFC887"/>
<path d="M44 61L45.7321 64H42.2679L44 61Z" fill="#FFC887"/>
<path d="M44 75L45.7321 78H42.2679L44 75Z" fill="#FFC887"/>
</svg>
