<svg width="38" height="38" viewBox="0 0 38 38" fill="none" xmlns="http://www.w3.org/2000/svg">
<path d="M36.4167 0.791748C25.4626 0.815349 15.5062 7.15937 10.857 17.0779L0.791748 37.2084" stroke="black" stroke-linecap="round" stroke-linejoin="round"/>
<path d="M4.75 29.2917C12.2983 29.2915 19.0973 24.7274 21.9561 17.7413C22.325 16.8404 22.7192 15.9997 23.1246 15.208L20.9079 12.9913C20.722 12.8031 20.6673 12.5216 20.7695 12.2776C20.8716 12.0335 21.1104 11.8747 21.375 11.8751H25.0626C27.7399 7.5981 31.7588 4.32866 36.4911 2.57775C36.9215 2.43823 37.2117 2.03583 37.2083 1.58341V1.58341C37.2083 1.14619 36.8539 0.791748 36.4167 0.791748" stroke="black" stroke-linecap="round" stroke-linejoin="round"/>
<path d="M16.0013 25.5013L13.4585 22.9585" stroke="black" stroke-linecap="round" stroke-linejoin="round"/>
<path d="M19.2153 22.3821L16.625 19.7917" stroke="black" stroke-linecap="round" stroke-linejoin="round"/>
</svg>
