<svg width="38" height="38" viewBox="0 0 38 38" fill="none" xmlns="http://www.w3.org/2000/svg">
<path d="M21.5824 19.0918L6.21458 34.4596C4.97417 35.7 2.96307 35.7 1.72266 34.4596C0.482256 33.2192 0.482256 31.2081 1.72266 29.9677L17.0905 14.5999" stroke="black" stroke-linecap="round" stroke-linejoin="round"/>
<path fill-rule="evenodd" clip-rule="evenodd" d="M35.0581 13.4758C34.9095 13.3264 34.7075 13.2424 34.4968 13.2424C34.2861 13.2424 34.0841 13.3264 33.9355 13.4758C33.1429 14.2888 31.8857 14.427 30.9353 13.8056C29.985 13.1843 29.6074 11.9772 30.0342 10.925C30.2636 10.337 30.1245 9.66897 29.6795 9.22135C28.3717 7.91035 26.0774 5.61769 26.0489 5.64619C21.8966 1.84342 15.6115 1.57622 11.1514 5.01285C10.8735 5.22064 10.7633 5.58515 10.8795 5.91207C10.9958 6.23899 11.3113 6.45212 11.658 6.43785C14.1026 6.32593 16.481 7.25038 18.2083 8.98385C19.2992 10.0764 20.2983 11.3889 19.2074 12.4799L17.0857 14.5999L21.5776 19.0919L23.8244 16.8451C24.4262 16.2435 25.3033 16.0087 26.1253 16.2292C26.9472 16.4496 27.5891 17.0918 27.8091 17.9138C28.0292 18.7359 27.794 19.6128 27.1921 20.2144C27.0427 20.363 26.9587 20.565 26.9587 20.7757C26.9587 20.9864 27.0427 21.1884 27.1921 21.337L28.8768 23.0217C29.174 23.3209 29.5784 23.4892 30.0001 23.4892C30.4219 23.4892 30.8263 23.3209 31.1235 23.0217L36.738 17.4072C37.0373 17.11 37.2056 16.7056 37.2056 16.2838C37.2056 15.862 37.0373 15.4577 36.738 15.1604L35.0581 13.4758Z" stroke="black" stroke-linecap="round" stroke-linejoin="round"/>
<path d="M33.9356 13.4773L27.1969 20.2144" stroke="black" stroke-linecap="round" stroke-linejoin="round"/>
</svg>
