<svg width="54" height="80" viewBox="0 0 54 80" fill="none" xmlns="http://www.w3.org/2000/svg">
<path d="M13.3335 79.9999C16.8697 79.9999 20.2611 78.5952 22.7616 76.0947C25.2621 73.5941 26.6669 70.2027 26.6669 66.6665V53.333H13.3335C9.7972 53.333 6.40579 54.7378 3.90528 57.2383C1.40477 59.7388 0 63.1302 0 66.6665C0 70.2027 1.40477 73.5941 3.90528 76.0947C6.40579 78.5952 9.7972 79.9999 13.3335 79.9999Z" fill="#0ACF83"/>
<path d="M0 40.0014C0 36.4652 1.40477 33.0738 3.90528 30.5733C6.40579 28.0727 9.7972 26.668 13.3335 26.668H26.6669V53.3349H13.3335C9.7972 53.3349 6.40579 51.9301 3.90528 49.4296C1.40477 46.9291 0 43.5377 0 40.0014Z" fill="#A259FF"/>
<path d="M0 13.3335C-1.07863e-06 9.79901 1.40334 6.40917 3.9016 3.90896C6.39986 1.40875 9.7886 0.00276129 13.323 0L26.6565 0V26.6669H13.3335C9.79721 26.6669 6.40579 25.2622 3.90528 22.7616C1.40477 20.2611 0 16.8697 0 13.3335Z" fill="#F24E1E"/>
<path d="M26.668 0H40.0014C43.5377 0 46.9291 1.40477 49.4296 3.90528C51.9301 6.40579 53.3349 9.79721 53.3349 13.3335C53.3349 16.8697 51.9301 20.2611 49.4296 22.7616C46.9291 25.2622 43.5377 26.6669 40.0014 26.6669H26.668V0Z" fill="#FF7262"/>
<path d="M53.3349 40.0014C53.3349 43.5377 51.9301 46.9291 49.4296 49.4296C46.9291 51.9301 43.5377 53.3349 40.0014 53.3349C36.4652 53.3349 33.0738 51.9301 30.5733 49.4296C28.0727 46.9291 26.668 43.5377 26.668 40.0014C26.668 36.4652 28.0727 33.0738 30.5733 30.5733C33.0738 28.0727 36.4652 26.668 40.0014 26.668C43.5377 26.668 46.9291 28.0727 49.4296 30.5733C51.9301 33.0738 53.3349 36.4652 53.3349 40.0014Z" fill="#1ABCFE"/>
</svg>
