<svg width="56" height="56" viewBox="0 0 56 56" fill="none" xmlns="http://www.w3.org/2000/svg">
<path d="M48.0275 26.8953H34.5798V30.7375H43.801C42.4563 36.5007 38.2299 41.3035 32.6587 43.2246L10.566 21.132C12.8714 14.4081 19.4031 9.60538 26.8954 9.60538C32.6587 9.60538 37.8456 12.487 41.1115 16.9056L43.9931 14.4081C40.151 9.22116 34.0034 5.76318 26.8954 5.76318C16.9057 5.76318 8.45284 12.8712 6.33963 22.2846L31.6981 47.6431C40.9194 45.3378 48.0275 36.885 48.0275 26.8953ZM5.76331 27.0874C5.76331 32.4664 7.87651 37.6534 11.9108 41.6877C15.9451 45.722 21.3242 47.8352 26.5112 47.8352L5.76331 27.0874Z" fill="white"/>
<path d="M26.8954 0C12.1029 0 0 12.1029 0 26.8954C0 41.6878 12.1029 53.7908 26.8954 53.7908C41.6878 53.7908 53.7907 41.6878 53.7907 26.8954C53.7907 12.1029 41.6878 0 26.8954 0ZM11.9108 41.8799C7.8765 37.8456 5.76329 32.4666 5.76329 27.2796L26.7033 48.0275C21.3242 47.8354 15.9451 45.9142 11.9108 41.8799ZM31.506 47.4511L6.33962 22.2847C8.45283 12.8714 16.9057 5.7633 26.8954 5.7633C34.0034 5.7633 40.1509 9.22127 43.9931 14.4082L41.1115 16.9057C37.8456 12.4871 32.6587 9.60549 26.8954 9.60549C19.4031 9.60549 13.0635 14.4082 10.566 21.1321L32.6587 43.2247C38.2298 41.3036 42.4563 36.5009 43.801 30.7376H34.5798V26.8954H48.0274C48.0274 36.8851 40.9194 45.3379 31.506 47.4511Z" fill="#663399"/>
</svg>
