<svg width="191" height="21" viewBox="0 0 191 21" fill="none" xmlns="http://www.w3.org/2000/svg">
<path d="M15.632 0.823999C16.144 0.823999 16.704 0.943999 17.312 1.184C17.872 1.408 18.152 1.832 18.152 2.456V18.992C18.152 19.76 17.68 20.144 16.736 20.144C15.792 20.144 15.32 19.76 15.32 18.992V6.656L14.624 6.584L13.664 9.704L10.784 19.304C10.608 19.864 10.176 20.136 9.488 20.12C9.184 20.104 8.92 20.024 8.696 19.88C8.472 19.736 8.32 19.528 8.24 19.256L6.512 13.664C6.16 12.56 5.808 11.44 5.456 10.304C5.104 9.152 4.72 7.88 4.304 6.488L3.608 6.584V18.992C3.608 19.76 3.136 20.144 2.192 20.144C1.248 20.144 0.776 19.76 0.776 18.992V2.456C0.776 1.848 1.056 1.424 1.616 1.184C2.208 0.943999 2.776 0.831999 3.32 0.847999C3.56 0.847999 3.808 0.879999 4.064 0.943999C4.32 1.008 4.56 1.104 4.784 1.232C5.008 1.344 5.208 1.496 5.384 1.688C5.56 1.864 5.696 2.072 5.792 2.312L9.56 15.152C9.832 14.208 10.12 13.184 10.424 12.08C10.728 10.976 11.04 9.856 11.36 8.72C11.68 7.584 11.992 6.464 12.296 5.36C12.616 4.24 12.912 3.2 13.184 2.24C13.28 2.016 13.416 1.816 13.592 1.64C13.768 1.464 13.968 1.32 14.192 1.208C14.416 1.08 14.648 0.984 14.888 0.92C15.144 0.855999 15.392 0.823999 15.632 0.823999ZM24.953 20C24.457 20 23.985 19.936 23.537 19.808C23.089 19.664 22.657 19.464 22.241 19.208V19.232C21.457 18.736 21.065 17.824 21.065 16.496V15.32C21.065 14.664 21.177 14.096 21.401 13.616C21.641 13.12 21.969 12.728 22.385 12.44H22.361C22.761 12.168 23.185 11.968 23.633 11.84C24.081 11.696 24.513 11.624 24.929 11.624H30.233V9.392C30.233 8.992 30.105 8.632 29.849 8.312C29.609 7.976 29.193 7.808 28.601 7.808H25.793C25.185 7.808 24.761 7.96 24.521 8.264C24.297 8.552 24.185 8.896 24.185 9.296V9.488C24.185 10.32 23.737 10.736 22.841 10.736C21.945 10.736 21.497 10.32 21.497 9.488V9.272C21.497 8.616 21.609 8.064 21.833 7.616C22.073 7.168 22.393 6.792 22.793 6.488H22.769C23.185 6.216 23.617 5.992 24.065 5.816C24.529 5.64 24.969 5.552 25.385 5.552H29.033C29.433 5.552 29.857 5.64 30.305 5.816C30.769 5.992 31.201 6.216 31.601 6.488H31.577C31.993 6.792 32.313 7.192 32.537 7.688C32.761 8.168 32.873 8.728 32.873 9.368V18.992C32.873 19.76 32.433 20.144 31.553 20.144C31.377 20.144 31.209 20.136 31.049 20.12C30.905 20.104 30.769 20.064 30.641 20C30.529 19.92 30.433 19.816 30.353 19.688C30.289 19.544 30.257 19.36 30.257 19.136L30.233 13.88H25.385C25.033 13.88 24.761 13.92 24.569 14C24.377 14.08 24.225 14.208 24.113 14.384C23.985 14.656 23.889 14.872 23.825 15.032C23.777 15.176 23.753 15.344 23.753 15.536V16.472C23.753 16.888 23.873 17.208 24.113 17.432C24.369 17.64 24.801 17.744 25.409 17.744H28.097C28.689 17.744 28.985 18.12 28.985 18.872C28.985 19.192 28.913 19.464 28.769 19.688C28.625 19.896 28.401 20 28.097 20H24.953ZM43.7774 11.6C44.1774 11.6 44.6014 11.696 45.0494 11.888C45.5134 12.064 45.9454 12.288 46.3454 12.56H46.3214C46.7374 12.864 47.0574 13.256 47.2814 13.736C47.5054 14.216 47.6174 14.792 47.6174 15.464V16.184C47.6174 17.496 47.1854 18.464 46.3214 19.088C45.9054 19.408 45.4814 19.64 45.0494 19.784C44.6174 19.928 44.1934 20 43.7774 20H39.6974C39.2814 20 38.8574 19.928 38.4254 19.784C37.9934 19.64 37.5694 19.408 37.1534 19.088C36.2894 18.48 35.8574 17.512 35.8574 16.184V15.896C35.8574 15.208 36.2974 14.872 37.1774 14.888C38.0734 14.888 38.5214 15.224 38.5214 15.896V16.16C38.5214 16.544 38.6414 16.904 38.8814 17.24C39.1214 17.576 39.5454 17.744 40.1534 17.744H43.3214C43.9294 17.744 44.3534 17.576 44.5934 17.24C44.8334 16.904 44.9534 16.544 44.9534 16.16V15.488C44.9534 15.28 44.9214 15.08 44.8574 14.888C44.8094 14.696 44.7214 14.528 44.5934 14.384C44.4654 14.224 44.2974 14.096 44.0894 14C43.8814 13.904 43.6254 13.856 43.3214 13.856H39.8174C39.0014 13.856 38.1454 13.568 37.2494 12.992C36.4014 12.448 35.9774 11.512 35.9774 10.184V9.368C35.9774 8.728 36.0894 8.168 36.3134 7.688C36.5374 7.192 36.8574 6.792 37.2734 6.488H37.2494C37.6494 6.216 38.0734 5.992 38.5214 5.816C38.9694 5.64 39.4014 5.552 39.8174 5.552H43.6574C44.0734 5.552 44.4974 5.64 44.9294 5.816C45.3774 5.992 45.8094 6.216 46.2254 6.488H46.2014C46.6174 6.792 46.9374 7.192 47.1614 7.688C47.3854 8.168 47.4974 8.728 47.4974 9.368V9.584C47.4974 9.92 47.3854 10.168 47.1614 10.328C46.9374 10.472 46.6094 10.552 46.1774 10.568C45.2974 10.584 44.8574 10.256 44.8574 9.584V9.392C44.8574 8.992 44.7294 8.632 44.4734 8.312C44.2334 7.976 43.8174 7.808 43.2254 7.808H40.2494C39.6574 7.808 39.2334 7.976 38.9774 8.312C38.7374 8.632 38.6174 8.992 38.6174 9.392V9.968C38.6174 10.384 38.7374 10.76 38.9774 11.096C39.2334 11.432 39.6574 11.6 40.2494 11.6H43.7774ZM54.3671 20C53.8711 20 53.3991 19.936 52.9511 19.808C52.5031 19.664 52.0711 19.464 51.6551 19.208V19.232C50.8711 18.736 50.4791 17.824 50.4791 16.496V15.32C50.4791 14.664 50.5911 14.096 50.8151 13.616C51.0551 13.12 51.3831 12.728 51.7991 12.44H51.7751C52.1751 12.168 52.5991 11.968 53.0471 11.84C53.4951 11.696 53.9271 11.624 54.3431 11.624H59.6471V9.392C59.6471 8.992 59.5191 8.632 59.2631 8.312C59.0231 7.976 58.6071 7.808 58.0151 7.808H55.2071C54.5991 7.808 54.1751 7.96 53.9351 8.264C53.7111 8.552 53.5991 8.896 53.5991 9.296V9.488C53.5991 10.32 53.1511 10.736 52.2551 10.736C51.3591 10.736 50.9111 10.32 50.9111 9.488V9.272C50.9111 8.616 51.0231 8.064 51.2471 7.616C51.4871 7.168 51.8071 6.792 52.2071 6.488H52.1831C52.5991 6.216 53.0311 5.992 53.4791 5.816C53.9431 5.64 54.3831 5.552 54.7991 5.552H58.4471C58.8471 5.552 59.2711 5.64 59.7191 5.816C60.1831 5.992 60.6151 6.216 61.0151 6.488H60.9911C61.4071 6.792 61.7271 7.192 61.9511 7.688C62.1751 8.168 62.2871 8.728 62.2871 9.368V18.992C62.2871 19.76 61.8471 20.144 60.9671 20.144C60.7911 20.144 60.6231 20.136 60.4631 20.12C60.3191 20.104 60.1831 20.064 60.0551 20C59.9431 19.92 59.8471 19.816 59.7671 19.688C59.7031 19.544 59.6711 19.36 59.6711 19.136L59.6471 13.88H54.7991C54.4471 13.88 54.1751 13.92 53.9831 14C53.7911 14.08 53.6391 14.208 53.5271 14.384C53.3991 14.656 53.3031 14.872 53.2391 15.032C53.1911 15.176 53.1671 15.344 53.1671 15.536V16.472C53.1671 16.888 53.2871 17.208 53.5271 17.432C53.7831 17.64 54.2151 17.744 54.8231 17.744H57.5111C58.1031 17.744 58.3991 18.12 58.3991 18.872C58.3991 19.192 58.3271 19.464 58.1831 19.688C58.0391 19.896 57.8151 20 57.5111 20H54.3671ZM67.9835 18.992C67.9835 19.76 67.5435 20.144 66.6635 20.144C65.7515 20.144 65.2955 19.76 65.2955 18.992V9.056C65.2955 7.744 65.6875 6.832 66.4715 6.32C67.2555 5.808 68.1595 5.552 69.1835 5.552H71.9195C72.5115 5.552 72.8075 5.928 72.8075 6.68C72.8395 7.432 72.5435 7.808 71.9195 7.808H69.3755C68.7995 7.808 68.4235 7.92 68.2475 8.144C68.0715 8.368 67.9835 8.68 67.9835 9.08V18.992ZM86.3808 16.184C86.3808 16.824 86.2688 17.392 86.0448 17.888C85.8208 18.384 85.5008 18.784 85.0848 19.088H85.1088C84.7088 19.36 84.2848 19.584 83.8368 19.76C83.3888 19.92 82.9568 20 82.5408 20H78.6768C78.2768 20 77.8448 19.92 77.3808 19.76C76.9328 19.584 76.5088 19.36 76.1088 19.088H76.1328C75.7168 18.784 75.3968 18.384 75.1728 17.888C74.9488 17.392 74.8368 16.824 74.8368 16.184V6.56C74.8368 5.792 75.2768 5.408 76.1568 5.408C77.0368 5.408 77.4768 5.792 77.4768 6.56V15.992C77.4768 16.44 77.5888 16.832 77.8128 17.168C78.0208 17.552 78.4528 17.744 79.1088 17.744H82.1088C82.7488 17.744 83.1728 17.552 83.3808 17.168L83.3568 17.192C83.6128 16.808 83.7408 16.408 83.7408 15.992V6.56C83.7408 5.792 84.1808 5.408 85.0608 5.408C85.9408 5.408 86.3808 5.792 86.3808 6.56V16.184ZM102.011 12.944C101.739 12.944 101.523 12.84 101.363 12.632C101.219 12.408 101.147 12.112 101.147 11.744C101.147 10.928 101.483 10.52 102.155 10.52H104.699C105.291 10.52 105.707 10.352 105.947 10.016C106.203 9.68 106.331 9.312 106.331 8.912V4.976C106.331 4.576 106.203 4.208 105.947 3.872C105.707 3.536 105.291 3.368 104.699 3.368H99.6588V19.04C99.6588 19.808 99.1788 20.192 98.2188 20.192C97.2908 20.192 96.8268 19.808 96.8268 19.04V2.384C96.8268 1.808 96.9708 1.424 97.2588 1.232C97.5468 1.04 97.8988 0.943999 98.3148 0.943999H105.323C105.723 0.943999 106.147 1.032 106.595 1.208C107.043 1.384 107.475 1.608 107.891 1.88H107.867C108.283 2.184 108.603 2.584 108.827 3.08C109.051 3.56 109.163 4.12 109.163 4.76V9.104C109.163 10.4 108.731 11.368 107.867 12.008C107.451 12.312 107.027 12.544 106.595 12.704C106.163 12.864 105.739 12.944 105.323 12.944H102.011ZM120.275 5.552C120.691 5.552 121.115 5.64 121.547 5.816C121.995 5.992 122.427 6.216 122.843 6.488H122.819C123.235 6.792 123.555 7.192 123.779 7.688C124.003 8.168 124.115 8.728 124.115 9.368V16.184C124.115 17.496 123.683 18.464 122.819 19.088C121.971 19.696 121.123 20 120.275 20H116.435C116.019 20 115.595 19.928 115.163 19.784C114.731 19.64 114.307 19.408 113.891 19.088C113.027 18.48 112.595 17.512 112.595 16.184V9.368C112.595 8.728 112.707 8.168 112.931 7.688C113.155 7.192 113.475 6.792 113.891 6.488H113.867C114.267 6.216 114.691 5.992 115.139 5.816C115.587 5.64 116.019 5.552 116.435 5.552H120.275ZM119.843 17.744C120.435 17.744 120.851 17.576 121.091 17.24C121.347 16.904 121.475 16.544 121.475 16.16V9.392C121.475 8.992 121.347 8.632 121.091 8.312C120.851 7.976 120.435 7.808 119.843 7.808H116.867C116.275 7.808 115.851 7.976 115.595 8.312C115.355 8.632 115.235 8.992 115.235 9.392V16.16C115.235 16.544 115.355 16.904 115.595 17.24C115.851 17.576 116.275 17.744 116.867 17.744H119.843ZM129.741 18.992C129.741 19.76 129.301 20.144 128.421 20.144C127.509 20.144 127.053 19.76 127.053 18.992V9.056C127.053 7.744 127.445 6.832 128.229 6.32C129.013 5.808 129.917 5.552 130.941 5.552H133.677C134.269 5.552 134.565 5.928 134.565 6.68C134.597 7.432 134.301 7.808 133.677 7.808H131.133C130.557 7.808 130.181 7.92 130.005 8.144C129.829 8.368 129.741 8.68 129.741 9.08V18.992ZM139.739 7.808V16.544C139.739 16.96 139.827 17.28 140.003 17.504C140.179 17.728 140.555 17.84 141.131 17.84H141.755C142.379 17.84 142.675 18.208 142.643 18.944C142.643 19.696 142.347 20.072 141.755 20.072H140.963C140.451 20.072 139.971 20.008 139.523 19.88C139.075 19.736 138.643 19.536 138.227 19.28V19.304C137.443 18.792 137.051 17.88 137.051 16.568V7.808H136.115C135.539 7.808 135.235 7.432 135.203 6.68C135.203 5.928 135.507 5.552 136.115 5.552H137.051V2.984C137.051 2.216 137.507 1.832 138.419 1.832C139.299 1.832 139.739 2.216 139.739 2.984V5.552H141.731C142.355 5.552 142.651 5.928 142.619 6.68C142.619 7.432 142.323 7.808 141.731 7.808H139.739ZM148.063 18.992C148.063 19.76 147.615 20.144 146.719 20.144C145.839 20.144 145.399 19.76 145.399 18.992V7.808H144.247C143.671 7.808 143.367 7.432 143.335 6.68C143.335 5.928 143.639 5.552 144.247 5.552H145.399V4.4C145.399 3.744 145.487 3.192 145.663 2.744C145.855 2.28 146.159 1.928 146.575 1.688V1.712C146.991 1.456 147.415 1.256 147.847 1.112C148.295 0.967999 148.767 0.895998 149.263 0.895998H149.839C150.431 0.895998 150.727 1.272 150.727 2.024C150.759 2.776 150.463 3.152 149.839 3.152H149.455C149.151 3.152 148.903 3.184 148.711 3.248C148.535 3.296 148.399 3.376 148.303 3.488C148.207 3.6 148.143 3.736 148.111 3.896C148.079 4.056 148.063 4.232 148.063 4.424V5.552H149.863C150.487 5.552 150.783 5.928 150.751 6.68C150.751 7.432 150.455 7.808 149.863 7.808H148.063V18.992ZM160.47 5.552C160.886 5.552 161.31 5.64 161.742 5.816C162.19 5.992 162.622 6.216 163.038 6.488H163.014C163.43 6.792 163.75 7.192 163.974 7.688C164.198 8.168 164.31 8.728 164.31 9.368V16.184C164.31 17.496 163.878 18.464 163.014 19.088C162.166 19.696 161.318 20 160.47 20H156.63C156.214 20 155.79 19.928 155.358 19.784C154.926 19.64 154.502 19.408 154.086 19.088C153.222 18.48 152.79 17.512 152.79 16.184V9.368C152.79 8.728 152.902 8.168 153.126 7.688C153.35 7.192 153.67 6.792 154.086 6.488H154.062C154.462 6.216 154.886 5.992 155.334 5.816C155.782 5.64 156.214 5.552 156.63 5.552H160.47ZM160.038 17.744C160.63 17.744 161.046 17.576 161.286 17.24C161.542 16.904 161.67 16.544 161.67 16.16V9.392C161.67 8.992 161.542 8.632 161.286 8.312C161.046 7.976 160.63 7.808 160.038 7.808H157.062C156.47 7.808 156.046 7.976 155.79 8.312C155.55 8.632 155.43 8.992 155.43 9.392V16.16C155.43 16.544 155.55 16.904 155.79 17.24C156.046 17.576 156.47 17.744 157.062 17.744H160.038ZM170.081 19.064C170.081 19.816 169.641 20.192 168.761 20.192C167.865 20.192 167.417 19.816 167.417 19.064V1.856C167.417 1.104 167.865 0.727999 168.761 0.727999C169.641 0.727999 170.081 1.104 170.081 1.856V19.064ZM176.104 18.992C176.104 19.76 175.664 20.144 174.784 20.144C173.888 20.144 173.44 19.76 173.44 18.992V6.608C173.44 5.84 173.888 5.456 174.784 5.456C175.664 5.456 176.104 5.84 176.104 6.608V18.992ZM176.608 2.432C176.608 2.944 176.432 3.376 176.08 3.728C175.728 4.08 175.296 4.256 174.784 4.256C174.272 4.256 173.832 4.08 173.464 3.728C173.112 3.376 172.936 2.944 172.936 2.432C172.936 1.904 173.112 1.464 173.464 1.112C173.832 0.759999 174.272 0.584 174.784 0.584C175.296 0.584 175.728 0.759999 176.08 1.112C176.432 1.464 176.608 1.904 176.608 2.432ZM187.118 5.552C187.534 5.552 187.958 5.64 188.39 5.816C188.838 5.992 189.27 6.216 189.686 6.488H189.662C190.078 6.792 190.398 7.192 190.622 7.688C190.846 8.168 190.958 8.728 190.958 9.368V16.184C190.958 17.496 190.526 18.464 189.662 19.088C188.814 19.696 187.966 20 187.118 20H183.278C182.862 20 182.438 19.928 182.006 19.784C181.574 19.64 181.15 19.408 180.734 19.088C179.87 18.48 179.438 17.512 179.438 16.184V9.368C179.438 8.728 179.55 8.168 179.774 7.688C179.998 7.192 180.318 6.792 180.734 6.488H180.71C181.11 6.216 181.534 5.992 181.982 5.816C182.43 5.64 182.862 5.552 183.278 5.552H187.118ZM186.686 17.744C187.278 17.744 187.694 17.576 187.934 17.24C188.19 16.904 188.318 16.544 188.318 16.16V9.392C188.318 8.992 188.19 8.632 187.934 8.312C187.694 7.976 187.278 7.808 186.686 7.808H183.71C183.118 7.808 182.694 7.976 182.438 8.312C182.198 8.632 182.078 8.992 182.078 9.392V16.16C182.078 16.544 182.198 16.904 182.438 17.24C182.694 17.576 183.118 17.744 183.71 17.744H186.686Z" fill="black"/>
</svg>
