<svg width="655" height="423" viewBox="0 0 655 423" fill="none" xmlns="http://www.w3.org/2000/svg">
<g clip-path="url(#clip0)">
<path d="M106.408 196.973C115.996 196.973 123.769 189.221 123.769 179.66C123.769 170.098 115.996 162.346 106.408 162.346C96.8195 162.346 89.0465 170.098 89.0465 179.66C89.0465 189.221 96.8195 196.973 106.408 196.973Z" fill="#FFB8B8"/>
<path d="M47.7441 387.129L52.1402 394.577L83.0388 381.212L76.5505 370.221L47.7441 387.129Z" fill="#FFB8B8"/>
<path d="M49.0613 383.799L57.7185 398.465L57.7189 398.466C58.4434 399.693 58.9183 401.051 59.1166 402.462C59.3149 403.872 59.2327 405.308 58.8746 406.687C58.5165 408.065 57.8896 409.36 57.0296 410.498C56.1696 411.635 55.0935 412.592 53.8626 413.314L53.558 413.493L39.3835 389.479L49.0613 383.799Z" fill="#2F2E41"/>
<path d="M98.6789 413.96L107.345 413.959L111.468 380.626L98.6775 380.626L98.6789 413.96Z" fill="#FFB8B8"/>
<path d="M96.4685 411.138L113.535 411.137H113.536C114.964 411.137 116.378 411.418 117.698 411.963C119.017 412.508 120.216 413.307 121.226 414.314C122.236 415.321 123.037 416.517 123.584 417.833C124.131 419.149 124.412 420.559 124.412 421.983V422.336L96.469 422.337L96.4685 411.138Z" fill="#2F2E41"/>
<path d="M63.8383 393.764C63.3396 393.764 62.8478 393.647 62.4027 393.423C61.9577 393.199 61.5719 392.873 61.2766 392.472L52.9188 381.152C52.6638 380.807 52.4817 380.414 52.3835 379.996C52.2852 379.579 52.2729 379.146 52.3472 378.723C52.4215 378.301 52.5809 377.898 52.8157 377.539C53.0506 377.18 53.3561 376.872 53.7137 376.634L90.9049 351.862L68.4642 293.021L116.453 296.97L118.069 347.535C118.221 352.14 117.114 356.7 114.867 360.725C112.62 364.751 109.318 368.092 105.314 370.391L65.4276 393.338C64.9447 393.617 64.3965 393.764 63.8383 393.764Z" fill="#2F2E41"/>
<path d="M98.9405 407.192C98.1174 407.191 97.3271 406.871 96.7354 406.301C96.1437 405.73 95.7967 404.953 95.7675 404.133L94.0088 354.873L115.786 353.729L114.052 403.343C114.027 404.129 113.708 404.877 113.16 405.442C112.611 406.007 111.871 406.347 111.084 406.397L99.1567 407.185C99.0844 407.19 99.0122 407.192 98.9405 407.192Z" fill="#2F2E41"/>
<path d="M122.007 306.752C116.466 306.752 97.1134 300.538 90.3949 298.322C89.3898 299.124 83.8682 303.242 77.4231 302.489C73.4462 302.024 69.9452 299.779 67.0173 295.817C60.5516 287.066 68.5375 249.539 76.3755 219.599C77.9469 213.547 81.8099 208.338 87.1524 205.067C92.495 201.797 98.9011 200.719 105.024 202.061C109.462 203.038 113.538 205.229 116.796 208.389C120.053 211.55 122.363 215.553 123.464 219.95C124.94 225.94 123.671 232.986 122.744 238.132C122.308 240.551 121.964 242.462 122.081 243.401C122.536 247.03 125.064 303.946 123.439 306.376C123.266 306.635 122.765 306.752 122.007 306.752Z" fill="#F9A826"/>
<path d="M101.737 306.853C102.628 306.192 103.362 305.344 103.889 304.37C104.415 303.395 104.721 302.317 104.784 301.212C104.848 300.106 104.667 299.001 104.256 297.973C103.844 296.944 103.212 296.019 102.403 295.26L102.746 226.291L86.4564 228.996L91.2414 295.94C90.0543 297.38 89.4382 299.204 89.5095 301.066C89.5809 302.929 90.3349 304.7 91.6287 306.046C92.9225 307.391 94.6661 308.216 96.5292 308.365C98.3923 308.514 100.245 307.976 101.737 306.853Z" fill="#FFB8B8"/>
<path d="M105.505 270.584H87.9591C87.1212 270.581 86.3179 270.25 85.7228 269.662C85.1276 269.074 84.7883 268.276 84.7782 267.44L84.3474 220.006C84.3325 218.366 84.6438 216.739 85.2634 215.22C85.883 213.7 86.7984 212.319 87.9569 211.154C89.1154 209.99 90.4939 209.066 92.0127 208.436C93.5314 207.807 95.1603 207.483 96.8051 207.485C98.4499 207.487 100.078 207.815 101.595 208.448C103.112 209.081 104.489 210.009 105.644 211.176C106.8 212.343 107.712 213.727 108.328 215.248C108.944 216.769 109.251 218.396 109.232 220.037L108.686 267.448C108.673 268.282 108.333 269.078 107.738 269.664C107.143 270.251 106.341 270.581 105.505 270.584Z" fill="#F9A826"/>
<path d="M101.987 196.901C94.0381 196.915 86.539 190.65 85.1615 182.843C84.6684 179.776 84.8907 176.637 85.8113 173.669C86.8109 170.291 88.5251 167.166 90.8383 164.505C93.1515 161.843 96.0101 159.707 99.2212 158.241C102.432 156.774 105.921 156.011 109.453 156.003C112.985 155.996 116.478 156.743 119.695 158.195C121.822 159.154 123.916 160.533 124.89 162.648C125.864 164.763 125.254 167.72 123.124 168.672C121.732 169.294 119.986 168.988 118.751 169.881C116.977 171.164 117.434 173.893 118.226 175.93C119.018 177.967 119.914 180.432 118.586 182.17C117.349 183.789 114.876 183.739 112.928 183.13C110.98 182.52 109.057 181.499 107.026 181.707C104.064 182.01 101.936 184.948 101.542 187.891C101.148 190.834 102.075 193.776 102.991 196.602L101.987 196.901Z" fill="#2F2E41"/>
<path d="M183.079 423H0.706869C0.519396 423 0.3396 422.926 0.207037 422.793C0.0744729 422.661 0 422.482 0 422.295C0 422.108 0.0744729 421.929 0.207037 421.797C0.3396 421.664 0.519396 421.59 0.706869 421.59H183.079C183.267 421.59 183.446 421.664 183.579 421.797C183.711 421.929 183.786 422.108 183.786 422.295C183.786 422.482 183.711 422.661 183.579 422.793C183.446 422.926 183.267 423 183.079 423Z" fill="#CCCCCC"/>
<path d="M643.337 306.313H190.348C187.256 306.309 184.291 305.083 182.105 302.902C179.918 300.722 178.688 297.766 178.685 294.682V16.138C178.687 13.8789 179.588 11.7131 181.19 10.1156C182.792 8.51816 184.964 7.61955 187.229 7.61694H646.308C648.612 7.61956 650.822 8.53368 652.451 10.1588C654.081 11.7838 654.997 13.9872 655 16.2854V294.682C654.997 297.766 653.767 300.722 651.58 302.902C649.394 305.083 646.429 306.309 643.337 306.313Z" fill="#F2F2F2"/>
<path d="M628.69 291.628H206.517C200.328 291.628 195.293 286.926 195.293 281.147V38.5878C195.293 34.3019 199.024 30.8149 203.61 30.8149H631.459C636.121 30.8149 639.914 34.3594 639.914 38.7158V281.147C639.914 286.926 634.879 291.628 628.69 291.628Z" fill="white"/>
<path d="M654.838 17.5874H178.521V11.6659C178.525 8.57207 179.76 5.60631 181.955 3.41928C184.149 1.23225 187.124 0.00256539 190.227 0H643.132C646.234 0.0025393 649.209 1.23221 651.404 3.41924C653.598 5.60628 654.833 8.57206 654.838 11.6659V17.5874Z" fill="#3F3D56"/>
<path d="M199.794 11.8308C201.467 11.8308 202.822 10.4789 202.822 8.81138C202.822 7.14382 201.467 5.79199 199.794 5.79199C198.122 5.79199 196.767 7.14382 196.767 8.81138C196.767 10.4789 198.122 11.8308 199.794 11.8308Z" fill="white"/>
<path d="M211.287 11.8308C212.96 11.8308 214.315 10.4789 214.315 8.81138C214.315 7.14382 212.96 5.79199 211.287 5.79199C209.615 5.79199 208.26 7.14382 208.26 8.81138C208.26 10.4789 209.615 11.8308 211.287 11.8308Z" fill="white"/>
<path d="M222.78 11.8308C224.452 11.8308 225.808 10.4789 225.808 8.81138C225.808 7.14382 224.452 5.79199 222.78 5.79199C221.108 5.79199 219.752 7.14382 219.752 8.81138C219.752 10.4789 221.108 11.8308 222.78 11.8308Z" fill="white"/>
<path d="M407.588 83.8509H325.02C323.789 83.8509 322.608 83.3633 321.738 82.4953C320.867 81.6273 320.378 80.45 320.378 79.2225C320.378 77.9949 320.867 76.8177 321.738 75.9496C322.608 75.0816 323.789 74.594 325.02 74.594H407.588C408.819 74.594 409.999 75.0816 410.87 75.9496C411.74 76.8177 412.229 77.9949 412.229 79.2225C412.229 80.45 411.74 81.6273 410.87 82.4953C409.999 83.3633 408.819 83.8509 407.588 83.8509Z" fill="#CCCCCC"/>
<path d="M510.187 83.8509H427.619C426.388 83.8509 425.208 83.3633 424.337 82.4953C423.467 81.6273 422.978 80.45 422.978 79.2225C422.978 77.9949 423.467 76.8177 424.337 75.9496C425.208 75.0816 426.388 74.594 427.619 74.594H510.187C511.418 74.594 512.599 75.0816 513.469 75.9496C514.34 76.8177 514.829 77.9949 514.829 79.2225C514.829 80.45 514.34 81.6273 513.469 82.4953C512.599 83.3633 511.418 83.8509 510.187 83.8509Z" fill="#CCCCCC"/>
<path d="M510.187 101.39H366.548C365.317 101.39 364.137 100.903 363.266 100.035C362.396 99.1668 361.907 97.9896 361.907 96.762C361.907 95.5345 362.396 94.3572 363.266 93.4892C364.137 92.6212 365.317 92.1335 366.548 92.1335H510.187C511.418 92.1335 512.599 92.6212 513.469 93.4892C514.34 94.3572 514.829 95.5345 514.829 96.762C514.829 97.9896 514.34 99.1668 513.469 100.035C512.599 100.903 511.418 101.39 510.187 101.39Z" fill="#CCCCCC"/>
<path d="M407.588 66.0677H325.02C323.79 66.0662 322.611 65.5779 321.742 64.7101C320.873 63.8422 320.384 62.6658 320.384 61.4393C320.384 60.2127 320.873 59.0363 321.742 58.1685C322.611 57.3006 323.79 56.8123 325.02 56.8108H407.588C408.198 56.81 408.802 56.9292 409.366 57.1615C409.93 57.3937 410.442 57.7345 410.874 58.1644C411.305 58.5943 411.648 59.1048 411.881 59.6667C412.115 60.2286 412.235 60.831 412.235 61.4393C412.235 62.0476 412.115 62.6499 411.881 63.2118C411.648 63.7737 411.305 64.2842 410.874 64.7141C410.442 65.144 409.93 65.4848 409.366 65.7171C408.802 65.9493 408.198 66.0685 407.588 66.0677Z" fill="#CCCCCC"/>
<path d="M453.025 66.3116H429.574C428.343 66.3116 427.162 65.824 426.292 64.956C425.421 64.088 424.932 62.9107 424.932 61.6831C424.932 60.4556 425.421 59.2783 426.292 58.4103C427.162 57.5423 428.343 57.0547 429.574 57.0547H453.025C454.256 57.0547 455.436 57.5423 456.307 58.4103C457.177 59.2783 457.666 60.4556 457.666 61.6831C457.666 62.9107 457.177 64.088 456.307 64.956C455.436 65.824 454.256 66.3116 453.025 66.3116Z" fill="#CCCCCC"/>
<path d="M348.471 101.39H325.02C323.79 101.389 322.611 100.901 321.742 100.033C320.873 99.165 320.384 97.9886 320.384 96.762C320.384 95.5355 320.873 94.359 321.742 93.4912C322.611 92.6234 323.79 92.1351 325.02 92.1335H348.471C349.081 92.1328 349.685 92.252 350.249 92.4842C350.813 92.7165 351.325 93.0573 351.757 93.4872C352.189 93.917 352.531 94.4275 352.765 94.9895C352.998 95.5514 353.118 96.1537 353.118 96.762C353.118 97.3703 352.998 97.9726 352.765 98.5346C352.531 99.0965 352.189 99.607 351.757 100.037C351.325 100.467 350.813 100.808 350.249 101.04C349.685 101.272 349.081 101.391 348.471 101.39Z" fill="#CCCCCC"/>
<path d="M407.588 248.093H325.02C323.789 248.093 322.608 247.605 321.738 246.737C320.867 245.869 320.378 244.692 320.378 243.464C320.378 242.237 320.867 241.06 321.738 240.192C322.608 239.324 323.789 238.836 325.02 238.836H407.588C408.197 238.836 408.801 238.956 409.364 239.188C409.927 239.421 410.439 239.762 410.87 240.192C411.301 240.621 411.643 241.132 411.876 241.693C412.109 242.255 412.229 242.857 412.229 243.464C412.229 244.072 412.109 244.674 411.876 245.236C411.643 245.797 411.301 246.307 410.87 246.737C410.439 247.167 409.927 247.508 409.364 247.741C408.801 247.973 408.197 248.093 407.588 248.093Z" fill="#CCCCCC"/>
<path d="M510.187 248.093H427.619C426.388 248.093 425.208 247.605 424.337 246.737C423.467 245.869 422.978 244.692 422.978 243.464C422.978 242.237 423.467 241.06 424.337 240.192C425.208 239.324 426.388 238.836 427.619 238.836H510.187C510.797 238.836 511.401 238.956 511.964 239.188C512.527 239.421 513.038 239.762 513.469 240.192C513.9 240.621 514.242 241.132 514.476 241.693C514.709 242.255 514.829 242.857 514.829 243.464C514.829 244.072 514.709 244.674 514.476 245.236C514.242 245.797 513.9 246.307 513.469 246.737C513.038 247.167 512.527 247.508 511.964 247.741C511.401 247.973 510.797 248.093 510.187 248.093Z" fill="#CCCCCC"/>
<path d="M510.187 265.632H366.548C365.317 265.632 364.137 265.145 363.266 264.277C362.396 263.409 361.907 262.231 361.907 261.004C361.907 259.776 362.396 258.599 363.266 257.731C364.137 256.863 365.317 256.375 366.548 256.375H510.187C510.797 256.375 511.402 256.494 511.965 256.726C512.529 256.958 513.041 257.299 513.473 257.729C513.905 258.159 514.247 258.669 514.481 259.231C514.714 259.793 514.835 260.396 514.835 261.004C514.835 261.612 514.714 262.215 514.481 262.777C514.247 263.338 513.905 263.849 513.473 264.279C513.041 264.709 512.529 265.049 511.965 265.282C511.402 265.514 510.797 265.633 510.187 265.632Z" fill="#CCCCCC"/>
<path d="M407.588 230.31H325.02C323.789 230.31 322.608 229.822 321.738 228.954C320.867 228.086 320.378 226.909 320.378 225.681C320.378 224.454 320.867 223.276 321.738 222.408C322.608 221.54 323.789 221.053 325.02 221.053H407.588C408.819 221.053 409.999 221.54 410.87 222.408C411.74 223.276 412.229 224.454 412.229 225.681C412.229 226.909 411.74 228.086 410.87 228.954C409.999 229.822 408.819 230.31 407.588 230.31Z" fill="#CCCCCC"/>
<path d="M453.025 230.553H429.574C428.343 230.553 427.162 230.066 426.292 229.198C425.421 228.33 424.932 227.152 424.932 225.925C424.932 224.697 425.421 223.52 426.292 222.652C427.162 221.784 428.343 221.296 429.574 221.296H453.025C454.256 221.296 455.436 221.784 456.307 222.652C457.177 223.52 457.666 224.697 457.666 225.925C457.666 227.152 457.177 228.33 456.307 229.198C455.436 230.066 454.256 230.553 453.025 230.553Z" fill="#CCCCCC"/>
<path d="M348.471 265.632H325.02C323.789 265.632 322.608 265.145 321.738 264.277C320.867 263.409 320.378 262.231 320.378 261.004C320.378 259.776 320.867 258.599 321.738 257.731C322.608 256.863 323.789 256.375 325.02 256.375H348.471C349.081 256.375 349.685 256.494 350.249 256.726C350.813 256.958 351.325 257.299 351.757 257.729C352.188 258.159 352.531 258.669 352.764 259.231C352.998 259.793 353.118 260.396 353.118 261.004C353.118 261.612 352.998 262.215 352.764 262.777C352.531 263.338 352.188 263.849 351.757 264.279C351.325 264.709 350.813 265.049 350.249 265.282C349.685 265.514 349.081 265.633 348.471 265.632Z" fill="#CCCCCC"/>
<path d="M386.024 198.403C384.272 198.407 382.589 197.72 381.342 196.492L350.304 165.928C349.695 165.328 349.211 164.614 348.881 163.826C348.551 163.038 348.381 162.192 348.381 161.338C348.381 160.484 348.551 159.639 348.881 158.851C349.211 158.063 349.695 157.348 350.304 156.748L381.217 126.307C382.504 125.045 384.239 124.341 386.045 124.346C387.85 124.352 389.581 125.068 390.861 126.338C392.142 127.618 392.861 129.353 392.861 131.162C392.861 132.97 392.142 134.705 390.861 135.985L367.89 158.892C367.175 159.608 366.773 160.577 366.773 161.587C366.773 162.598 367.175 163.567 367.89 164.282L390.736 187.065C391.669 187.993 392.305 189.177 392.562 190.466C392.82 191.755 392.688 193.092 392.183 194.306C391.679 195.52 390.824 196.558 389.727 197.287C388.631 198.016 387.342 198.405 386.024 198.403V198.403Z" fill="#F9A826"/>
<path d="M435.48 198.402C434.162 198.404 432.873 198.016 431.777 197.287C430.68 196.557 429.825 195.52 429.321 194.306C428.816 193.091 428.684 191.755 428.942 190.466C429.199 189.177 429.835 187.993 430.768 187.065L453.614 164.282C454.329 163.567 454.731 162.598 454.731 161.587C454.731 160.577 454.329 159.608 453.614 158.892L430.643 135.985C430.008 135.352 429.504 134.6 429.16 133.772C428.817 132.944 428.64 132.057 428.64 131.161C428.64 130.265 428.817 129.378 429.16 128.551C429.504 127.723 430.008 126.971 430.643 126.338C431.923 125.067 433.654 124.352 435.459 124.346C437.265 124.341 439 125.045 440.288 126.307L471.2 156.748C471.809 157.348 472.293 158.063 472.623 158.851C472.954 159.639 473.124 160.484 473.124 161.338C473.124 162.192 472.954 163.037 472.623 163.825C472.293 164.613 471.809 165.328 471.2 165.928L440.162 196.492C438.915 197.72 437.233 198.406 435.48 198.402Z" fill="#F9A826"/>
</g>
<defs>
<clipPath id="clip0">
<rect width="655" height="423" fill="white"/>
</clipPath>
</defs>
</svg>
