<svg width="655" height="526" viewBox="0 0 655 526" fill="none" xmlns="http://www.w3.org/2000/svg">
<g filter="url(#filter0_i)">
<circle cx="306" cy="263" r="263" fill="url(#paint0_linear)"/>
</g>
<g clip-path="url(#clip0)">
<path d="M106.408 287.973C115.996 287.973 123.769 280.221 123.769 270.66C123.769 261.098 115.996 253.346 106.408 253.346C96.8195 253.346 89.0465 261.098 89.0465 270.66C89.0465 280.221 96.8195 287.973 106.408 287.973Z" fill="#FFB8B8"/>
<path d="M47.7441 478.129L52.1402 485.577L83.0388 472.212L76.5505 461.221L47.7441 478.129Z" fill="#FFB8B8"/>
<path d="M49.0613 474.799L57.7185 489.465L57.7189 489.466C58.4434 490.693 58.9183 492.051 59.1166 493.462C59.3149 494.872 59.2327 496.308 58.8746 497.687C58.5165 499.065 57.8896 500.36 57.0296 501.498C56.1696 502.635 55.0935 503.592 53.8626 504.314L53.558 504.493L39.3835 480.479L49.0613 474.799Z" fill="#2F2E41"/>
<path d="M98.6789 504.96L107.345 504.959L111.468 471.626L98.6775 471.626L98.6789 504.96Z" fill="#FFB8B8"/>
<path d="M96.4685 502.138L113.535 502.137H113.536C114.964 502.137 116.378 502.418 117.698 502.963C119.017 503.508 120.216 504.307 121.226 505.314C122.236 506.321 123.037 507.517 123.584 508.833C124.131 510.149 124.412 511.559 124.412 512.983V513.336L96.469 513.337L96.4685 502.138Z" fill="#2F2E41"/>
<path d="M63.8383 484.764C63.3396 484.764 62.8478 484.647 62.4027 484.423C61.9577 484.199 61.5719 483.873 61.2766 483.472L52.9188 472.152C52.6638 471.807 52.4817 471.414 52.3835 470.996C52.2852 470.579 52.2729 470.146 52.3472 469.723C52.4215 469.301 52.5809 468.898 52.8157 468.539C53.0506 468.18 53.3561 467.872 53.7137 467.634L90.9049 442.862L68.4642 384.021L116.453 387.97L118.069 438.535C118.221 443.14 117.114 447.7 114.867 451.725C112.62 455.751 109.318 459.092 105.314 461.391L65.4276 484.338C64.9447 484.617 64.3965 484.764 63.8383 484.764Z" fill="#2F2E41"/>
<path d="M98.9405 498.192C98.1174 498.191 97.3271 497.871 96.7354 497.301C96.1437 496.73 95.7967 495.953 95.7675 495.133L94.0088 445.873L115.786 444.729L114.052 494.343C114.027 495.129 113.708 495.877 113.16 496.442C112.611 497.007 111.871 497.347 111.084 497.397L99.1567 498.185C99.0844 498.19 99.0122 498.192 98.9405 498.192Z" fill="#2F2E41"/>
<path d="M122.007 397.752C116.466 397.752 97.1134 391.538 90.3949 389.322C89.3898 390.124 83.8682 394.242 77.4231 393.489C73.4462 393.024 69.9452 390.779 67.0173 386.817C60.5516 378.066 68.5375 340.539 76.3755 310.599C77.9469 304.547 81.8099 299.338 87.1524 296.067C92.495 292.797 98.9011 291.719 105.024 293.061C109.462 294.038 113.538 296.229 116.796 299.389C120.053 302.55 122.363 306.553 123.464 310.95C124.94 316.94 123.671 323.986 122.744 329.132C122.308 331.551 121.964 333.462 122.081 334.401C122.536 338.03 125.064 394.946 123.439 397.376C123.266 397.635 122.765 397.752 122.007 397.752Z" fill="#F9A826"/>
<path d="M101.737 397.853C102.628 397.192 103.362 396.344 103.889 395.37C104.415 394.395 104.721 393.317 104.784 392.212C104.848 391.106 104.667 390.001 104.256 388.973C103.844 387.944 103.212 387.019 102.403 386.26L102.746 317.291L86.4564 319.996L91.2414 386.94C90.0543 388.38 89.4382 390.204 89.5095 392.066C89.5809 393.929 90.3349 395.7 91.6287 397.046C92.9225 398.391 94.6661 399.216 96.5292 399.365C98.3923 399.514 100.245 398.976 101.737 397.853Z" fill="#FFB8B8"/>
<path d="M105.505 361.584H87.9591C87.1212 361.581 86.3179 361.25 85.7228 360.662C85.1276 360.074 84.7883 359.276 84.7782 358.44L84.3474 311.006C84.3325 309.366 84.6438 307.739 85.2634 306.22C85.883 304.7 86.7984 303.319 87.9569 302.154C89.1154 300.99 90.4939 300.066 92.0127 299.436C93.5314 298.807 95.1603 298.483 96.8051 298.485C98.4499 298.487 100.078 298.815 101.595 299.448C103.112 300.081 104.489 301.009 105.644 302.176C106.8 303.343 107.712 304.727 108.328 306.248C108.944 307.769 109.251 309.396 109.232 311.037L108.686 358.448C108.673 359.282 108.333 360.078 107.738 360.664C107.143 361.251 106.341 361.581 105.505 361.584Z" fill="#F9A826"/>
<path d="M101.987 287.901C94.0381 287.915 86.539 281.65 85.1615 273.843C84.6684 270.776 84.8907 267.637 85.8113 264.669C86.8109 261.291 88.5251 258.166 90.8383 255.505C93.1515 252.843 96.0101 250.707 99.2212 249.241C102.432 247.774 105.921 247.011 109.453 247.003C112.985 246.996 116.478 247.743 119.695 249.195C121.822 250.154 123.916 251.533 124.89 253.648C125.864 255.763 125.254 258.72 123.124 259.672C121.732 260.294 119.986 259.988 118.751 260.881C116.977 262.164 117.434 264.893 118.226 266.93C119.018 268.967 119.914 271.432 118.586 273.17C117.349 274.789 114.876 274.739 112.928 274.13C110.98 273.52 109.057 272.499 107.026 272.707C104.064 273.01 101.936 275.948 101.542 278.891C101.148 281.834 102.075 284.776 102.991 287.602L101.987 287.901Z" fill="#2F2E41"/>
<path d="M183.079 514H0.706869C0.519396 514 0.3396 513.926 0.207037 513.793C0.0744729 513.661 0 513.482 0 513.295C0 513.108 0.0744729 512.929 0.207037 512.797C0.3396 512.664 0.519396 512.59 0.706869 512.59H183.079C183.267 512.59 183.446 512.664 183.579 512.797C183.711 512.929 183.786 513.108 183.786 513.295C183.786 513.482 183.711 513.661 183.579 513.793C183.446 513.926 183.267 514 183.079 514Z" fill="#CCCCCC"/>
<path d="M643.337 397.313H190.348C187.256 397.309 184.291 396.083 182.105 393.902C179.918 391.722 178.688 388.766 178.685 385.682V107.138C178.687 104.879 179.588 102.713 181.19 101.116C182.792 99.5182 184.964 98.6195 187.229 98.6169H646.308C648.612 98.6196 650.822 99.5337 652.451 101.159C654.081 102.784 654.997 104.987 655 107.285V385.682C654.997 388.766 653.767 391.722 651.58 393.902C649.394 396.083 646.429 397.309 643.337 397.313Z" fill="#F2F2F2"/>
<path d="M628.69 382.628H206.517C200.328 382.628 195.293 377.926 195.293 372.147V129.588C195.293 125.302 199.024 121.815 203.61 121.815H631.459C636.121 121.815 639.914 125.359 639.914 129.716V372.147C639.914 377.926 634.879 382.628 628.69 382.628Z" fill="white"/>
<path d="M654.838 108.587H178.521V102.666C178.525 99.5721 179.76 96.6063 181.955 94.4193C184.149 92.2322 187.124 91.0026 190.227 91H643.132C646.234 91.0025 649.209 92.2322 651.404 94.4192C653.598 96.6063 654.833 99.5721 654.838 102.666V108.587Z" fill="#3F3D56"/>
<path d="M199.794 102.831C201.467 102.831 202.822 101.479 202.822 99.8114C202.822 98.1438 201.467 96.792 199.794 96.792C198.122 96.792 196.767 98.1438 196.767 99.8114C196.767 101.479 198.122 102.831 199.794 102.831Z" fill="white"/>
<path d="M211.287 102.831C212.96 102.831 214.315 101.479 214.315 99.8114C214.315 98.1438 212.96 96.792 211.287 96.792C209.615 96.792 208.26 98.1438 208.26 99.8114C208.26 101.479 209.615 102.831 211.287 102.831Z" fill="white"/>
<path d="M222.78 102.831C224.452 102.831 225.808 101.479 225.808 99.8114C225.808 98.1438 224.452 96.792 222.78 96.792C221.108 96.792 219.752 98.1438 219.752 99.8114C219.752 101.479 221.108 102.831 222.78 102.831Z" fill="white"/>
<path d="M407.588 174.851H325.02C323.789 174.851 322.608 174.363 321.738 173.495C320.867 172.627 320.378 171.45 320.378 170.222C320.378 168.995 320.867 167.818 321.738 166.95C322.608 166.082 323.789 165.594 325.02 165.594H407.588C408.819 165.594 409.999 166.082 410.87 166.95C411.74 167.818 412.229 168.995 412.229 170.222C412.229 171.45 411.74 172.627 410.87 173.495C409.999 174.363 408.819 174.851 407.588 174.851Z" fill="#CCCCCC"/>
<path d="M510.187 174.851H427.619C426.388 174.851 425.208 174.363 424.337 173.495C423.467 172.627 422.978 171.45 422.978 170.222C422.978 168.995 423.467 167.818 424.337 166.95C425.208 166.082 426.388 165.594 427.619 165.594H510.187C511.418 165.594 512.599 166.082 513.469 166.95C514.34 167.818 514.829 168.995 514.829 170.222C514.829 171.45 514.34 172.627 513.469 173.495C512.599 174.363 511.418 174.851 510.187 174.851Z" fill="#CCCCCC"/>
<path d="M510.187 192.39H366.548C365.317 192.39 364.137 191.903 363.266 191.035C362.396 190.167 361.907 188.99 361.907 187.762C361.907 186.534 362.396 185.357 363.266 184.489C364.137 183.621 365.317 183.134 366.548 183.134H510.187C511.418 183.134 512.599 183.621 513.469 184.489C514.34 185.357 514.829 186.534 514.829 187.762C514.829 188.99 514.34 190.167 513.469 191.035C512.599 191.903 511.418 192.39 510.187 192.39Z" fill="#CCCCCC"/>
<path d="M407.588 157.068H325.02C323.79 157.066 322.611 156.578 321.742 155.71C320.873 154.842 320.384 153.666 320.384 152.439C320.384 151.213 320.873 150.036 321.742 149.168C322.611 148.301 323.79 147.812 325.02 147.811H407.588C408.198 147.81 408.802 147.929 409.366 148.161C409.93 148.394 410.442 148.735 410.874 149.164C411.305 149.594 411.648 150.105 411.881 150.667C412.115 151.229 412.235 151.831 412.235 152.439C412.235 153.048 412.115 153.65 411.881 154.212C411.648 154.774 411.305 155.284 410.874 155.714C410.442 156.144 409.93 156.485 409.366 156.717C408.802 156.949 408.198 157.068 407.588 157.068Z" fill="#CCCCCC"/>
<path d="M453.025 157.312H429.574C428.343 157.312 427.162 156.824 426.292 155.956C425.421 155.088 424.932 153.911 424.932 152.683C424.932 151.456 425.421 150.278 426.292 149.41C427.162 148.542 428.343 148.055 429.574 148.055H453.025C454.256 148.055 455.436 148.542 456.307 149.41C457.177 150.278 457.666 151.456 457.666 152.683C457.666 153.911 457.177 155.088 456.307 155.956C455.436 156.824 454.256 157.312 453.025 157.312Z" fill="#CCCCCC"/>
<path d="M348.471 192.39H325.02C323.79 192.389 322.611 191.901 321.742 191.033C320.873 190.165 320.384 188.989 320.384 187.762C320.384 186.535 320.873 185.359 321.742 184.491C322.611 183.623 323.79 183.135 325.02 183.134H348.471C349.081 183.133 349.685 183.252 350.249 183.484C350.813 183.717 351.325 184.057 351.757 184.487C352.189 184.917 352.531 185.428 352.765 185.989C352.998 186.551 353.118 187.154 353.118 187.762C353.118 188.37 352.998 188.973 352.765 189.535C352.531 190.096 352.189 190.607 351.757 191.037C351.325 191.467 350.813 191.808 350.249 192.04C349.685 192.272 349.081 192.391 348.471 192.39Z" fill="#CCCCCC"/>
<path d="M407.588 339.093H325.02C323.789 339.093 322.608 338.605 321.738 337.737C320.867 336.869 320.378 335.692 320.378 334.464C320.378 333.237 320.867 332.06 321.738 331.192C322.608 330.324 323.789 329.836 325.02 329.836H407.588C408.197 329.836 408.801 329.956 409.364 330.188C409.927 330.421 410.439 330.762 410.87 331.192C411.301 331.621 411.643 332.132 411.876 332.693C412.109 333.255 412.229 333.857 412.229 334.464C412.229 335.072 412.109 335.674 411.876 336.236C411.643 336.797 411.301 337.307 410.87 337.737C410.439 338.167 409.927 338.508 409.364 338.741C408.801 338.973 408.197 339.093 407.588 339.093Z" fill="#CCCCCC"/>
<path d="M510.187 339.093H427.619C426.388 339.093 425.208 338.605 424.337 337.737C423.467 336.869 422.978 335.692 422.978 334.464C422.978 333.237 423.467 332.06 424.337 331.192C425.208 330.324 426.388 329.836 427.619 329.836H510.187C510.797 329.836 511.401 329.956 511.964 330.188C512.527 330.421 513.038 330.762 513.469 331.192C513.9 331.621 514.242 332.132 514.476 332.693C514.709 333.255 514.829 333.857 514.829 334.464C514.829 335.072 514.709 335.674 514.476 336.236C514.242 336.797 513.9 337.307 513.469 337.737C513.038 338.167 512.527 338.508 511.964 338.741C511.401 338.973 510.797 339.093 510.187 339.093Z" fill="#CCCCCC"/>
<path d="M510.187 356.632H366.548C365.317 356.632 364.137 356.145 363.266 355.277C362.396 354.409 361.907 353.231 361.907 352.004C361.907 350.776 362.396 349.599 363.266 348.731C364.137 347.863 365.317 347.375 366.548 347.375H510.187C510.797 347.375 511.402 347.494 511.965 347.726C512.529 347.958 513.041 348.299 513.473 348.729C513.905 349.159 514.247 349.669 514.481 350.231C514.714 350.793 514.835 351.396 514.835 352.004C514.835 352.612 514.714 353.215 514.481 353.777C514.247 354.338 513.905 354.849 513.473 355.279C513.041 355.709 512.529 356.049 511.965 356.282C511.402 356.514 510.797 356.633 510.187 356.632Z" fill="#CCCCCC"/>
<path d="M407.588 321.31H325.02C323.789 321.31 322.608 320.822 321.738 319.954C320.867 319.086 320.378 317.909 320.378 316.681C320.378 315.454 320.867 314.276 321.738 313.408C322.608 312.54 323.789 312.053 325.02 312.053H407.588C408.819 312.053 409.999 312.54 410.87 313.408C411.74 314.276 412.229 315.454 412.229 316.681C412.229 317.909 411.74 319.086 410.87 319.954C409.999 320.822 408.819 321.31 407.588 321.31Z" fill="#CCCCCC"/>
<path d="M453.025 321.553H429.574C428.343 321.553 427.162 321.066 426.292 320.198C425.421 319.33 424.932 318.152 424.932 316.925C424.932 315.697 425.421 314.52 426.292 313.652C427.162 312.784 428.343 312.296 429.574 312.296H453.025C454.256 312.296 455.436 312.784 456.307 313.652C457.177 314.52 457.666 315.697 457.666 316.925C457.666 318.152 457.177 319.33 456.307 320.198C455.436 321.066 454.256 321.553 453.025 321.553Z" fill="#CCCCCC"/>
<path d="M348.471 356.632H325.02C323.789 356.632 322.608 356.145 321.738 355.277C320.867 354.409 320.378 353.231 320.378 352.004C320.378 350.776 320.867 349.599 321.738 348.731C322.608 347.863 323.789 347.375 325.02 347.375H348.471C349.081 347.375 349.685 347.494 350.249 347.726C350.813 347.958 351.325 348.299 351.757 348.729C352.188 349.159 352.531 349.669 352.764 350.231C352.998 350.793 353.118 351.396 353.118 352.004C353.118 352.612 352.998 353.215 352.764 353.777C352.531 354.338 352.188 354.849 351.757 355.279C351.325 355.709 350.813 356.049 350.249 356.282C349.685 356.514 349.081 356.633 348.471 356.632Z" fill="#CCCCCC"/>
<path d="M386.024 289.403C384.272 289.407 382.589 288.72 381.342 287.492L350.304 256.928C349.695 256.328 349.211 255.614 348.881 254.826C348.551 254.038 348.381 253.192 348.381 252.338C348.381 251.484 348.551 250.639 348.881 249.851C349.211 249.063 349.695 248.348 350.304 247.748L381.217 217.307C382.504 216.045 384.239 215.341 386.045 215.346C387.85 215.352 389.581 216.068 390.861 217.338C392.142 218.618 392.861 220.353 392.861 222.162C392.861 223.97 392.142 225.705 390.861 226.985L367.89 249.892C367.175 250.608 366.773 251.577 366.773 252.587C366.773 253.598 367.175 254.567 367.89 255.282L390.736 278.065C391.669 278.993 392.305 280.177 392.562 281.466C392.82 282.755 392.688 284.092 392.183 285.306C391.679 286.52 390.824 287.558 389.727 288.287C388.631 289.016 387.342 289.405 386.024 289.403V289.403Z" fill="#F9A826"/>
<path d="M435.48 289.402C434.162 289.404 432.873 289.016 431.777 288.287C430.68 287.557 429.825 286.52 429.321 285.306C428.816 284.091 428.684 282.755 428.942 281.466C429.199 280.177 429.835 278.993 430.768 278.065L453.614 255.282C454.329 254.567 454.731 253.598 454.731 252.587C454.731 251.577 454.329 250.608 453.614 249.892L430.643 226.985C430.008 226.352 429.504 225.6 429.16 224.772C428.817 223.944 428.64 223.057 428.64 222.161C428.64 221.265 428.817 220.378 429.16 219.551C429.504 218.723 430.008 217.971 430.643 217.338C431.923 216.067 433.654 215.352 435.459 215.346C437.265 215.341 439 216.045 440.288 217.307L471.2 247.748C471.809 248.348 472.293 249.063 472.623 249.851C472.954 250.639 473.124 251.484 473.124 252.338C473.124 253.192 472.954 254.037 472.623 254.825C472.293 255.613 471.809 256.328 471.2 256.928L440.162 287.492C438.915 288.72 437.233 289.406 435.48 289.402Z" fill="#F9A826"/>
</g>
<defs>
<filter id="filter0_i" x="43" y="0" width="526" height="530" filterUnits="userSpaceOnUse" color-interpolation-filters="sRGB">
<feFlood flood-opacity="0" result="BackgroundImageFix"/>
<feBlend mode="normal" in="SourceGraphic" in2="BackgroundImageFix" result="shape"/>
<feColorMatrix in="SourceAlpha" type="matrix" values="0 0 0 0 0 0 0 0 0 0 0 0 0 0 0 0 0 0 127 0" result="hardAlpha"/>
<feOffset dy="4"/>
<feGaussianBlur stdDeviation="9.5"/>
<feComposite in2="hardAlpha" operator="arithmetic" k2="-1" k3="1"/>
<feColorMatrix type="matrix" values="0 0 0 0 0.320833 0 0 0 0 0.310139 0 0 0 0 0.310139 0 0 0 0.25 0"/>
<feBlend mode="normal" in2="shape" result="effect1_innerShadow"/>
</filter>
<linearGradient id="paint0_linear" x1="306" y1="-4.89503e-06" x2="-22.5" y2="97" gradientUnits="userSpaceOnUse">
<stop stop-color="#FFC887"/>
<stop offset="1" stop-color="#FFC887" stop-opacity="0"/>
</linearGradient>
<clipPath id="clip0">
<rect width="655" height="423" fill="white" transform="translate(0 91)"/>
</clipPath>
</defs>
</svg>
