<svg width="80" height="61" viewBox="0 0 80 61" fill="none" xmlns="http://www.w3.org/2000/svg">
<path d="M45.5841 16.6902L42.8464 21.5105L33.4834 5.0211L4.74068 55.6341H24.2014C24.2014 58.2962 26.3239 60.4543 28.9422 60.4543H4.74069C3.04714 60.4543 1.4824 59.5351 0.635766 58.0438C-0.210864 56.5525 -0.210778 54.7152 0.635994 53.2239L29.3787 2.61096C30.2255 1.11948 31.7906 0.200684 33.4844 0.200684C35.1782 0.200684 36.7432 1.11948 37.5901 2.61096L45.5841 16.6902V16.6902Z" fill="#00C58E"/>
<path d="M66.3328 53.2239L48.322 21.5105L45.5842 16.6902L42.8464 21.5105L24.8375 53.2239C23.9908 54.7152 23.9907 56.5525 24.8373 58.0438C25.6839 59.5351 27.2487 60.4543 28.9422 60.4543H62.2222C63.9161 60.4543 65.4815 59.5361 66.3286 58.0447C67.1757 56.5532 67.1758 54.7155 66.3289 53.2239H66.3328ZM28.9422 55.6341L45.5842 26.3308L62.2222 55.6341H28.9422H28.9422Z" fill="#2F495E"/>
<path d="M79.2097 58.0443C78.3631 59.5354 76.7984 60.4545 75.1051 60.4545H62.2221C64.8403 60.4545 66.9628 58.2963 66.9628 55.6342H75.0952L52.0196 14.9972L48.3219 21.5106L45.5841 16.6903L47.915 12.587C48.7618 11.0956 50.3269 10.1768 52.0206 10.1768C53.7144 10.1768 55.2795 11.0956 56.1263 12.587L79.2097 53.224C80.0566 54.7154 80.0566 56.5529 79.2097 58.0443Z" fill="#108775"/>
</svg>
