<svg width="500" height="500" viewBox="0 0 500 500" fill="none" xmlns="http://www.w3.org/2000/svg">
<path d="M449.9 398.49H416.78V398.74H449.9V398.49Z" fill="#EBEBEB"/>
<path d="M331.22 401.21H322.53V401.46H331.22V401.21Z" fill="#EBEBEB"/>
<path d="M415.78 389.21H396.59V389.46H415.78V389.21Z" fill="#EBEBEB"/>
<path d="M95.65 390.89H52.46V391.14H95.65V390.89Z" fill="#EBEBEB"/>
<path d="M110.89 390.89H104.56V391.14H110.89V390.89Z" fill="#EBEBEB"/>
<path d="M225.15 395.11H131.47V395.36H225.15V395.11Z" fill="#EBEBEB"/>
<path d="M237 337.8H43.91C42.3973 337.797 40.9475 337.195 39.8788 336.124C38.8102 335.053 38.21 333.603 38.21 332.09V60.66C38.2231 59.156 38.8292 57.718 39.8964 56.6582C40.9637 55.5985 42.4059 55.0026 43.91 55H237C238.514 55 239.967 55.6016 241.038 56.6724C242.108 57.7433 242.71 59.1956 242.71 60.71V332.09C242.71 333.604 242.108 335.057 241.038 336.128C239.967 337.198 238.514 337.8 237 337.8ZM43.91 55.2C42.4636 55.2026 41.0774 55.7791 40.0556 56.8027C39.0338 57.8264 38.46 59.2136 38.46 60.66V332.09C38.46 333.536 39.0338 334.924 40.0556 335.947C41.0774 336.971 42.4636 337.547 43.91 337.55H237C238.447 337.547 239.834 336.971 240.858 335.948C241.881 334.924 242.457 333.537 242.46 332.09V60.66C242.457 59.2127 241.881 57.8255 240.858 56.8021C239.834 55.7787 238.447 55.2026 237 55.2H43.91Z" fill="#EBEBEB"/>
<path d="M453.31 337.8H260.21C258.696 337.797 257.246 337.195 256.175 336.125C255.105 335.054 254.503 333.604 254.5 332.09V60.66C254.516 59.1551 255.124 57.7171 256.193 56.6576C257.262 55.5981 258.705 55.0025 260.21 55H453.31C454.812 55.0052 456.252 55.6022 457.317 56.6617C458.382 57.7212 458.987 59.1578 459 60.66V332.09C459 333.601 458.401 335.05 457.335 336.121C456.268 337.191 454.821 337.795 453.31 337.8ZM260.21 55.2C258.763 55.2026 257.375 55.7787 256.352 56.8021C255.329 57.8255 254.753 59.2127 254.75 60.66V332.09C254.753 333.537 255.329 334.924 256.352 335.948C257.375 336.971 258.763 337.547 260.21 337.55H453.31C454.757 337.547 456.145 336.971 457.168 335.948C458.191 334.924 458.767 333.537 458.77 332.09V60.66C458.767 59.2127 458.191 57.8255 457.168 56.8021C456.145 55.7787 454.757 55.2026 453.31 55.2H260.21Z" fill="#EBEBEB"/>
<path d="M500 382.4H0V382.65H500V382.4Z" fill="#EBEBEB"/>
<path d="M246.77 334.5C309.537 334.5 360.42 283.617 360.42 220.85C360.42 158.083 309.537 107.2 246.77 107.2C184.003 107.2 133.12 158.083 133.12 220.85C133.12 283.617 184.003 334.5 246.77 334.5Z" fill="#F0F0F0"/>
<path d="M248.48 89.71V90.71H248C246.87 90.71 245.75 90.71 244.63 90.77C243.51 90.83 242.41 90.84 241.31 90.91C240.21 90.98 238.97 91.05 237.81 91.14C234.89 91.38 231.997 91.7133 229.13 92.14C209.517 95.0908 190.823 102.433 174.445 113.619C158.066 124.805 144.425 139.545 134.54 156.74C134.34 157.07 134.15 157.41 133.96 157.74C122.869 177.39 117.054 199.576 117.08 222.14V222.35C117.08 222.68 117.08 223.02 117.08 223.35C117.249 246.071 123.343 268.355 134.76 288L135.35 289C146.274 307.478 161.553 323.003 179.855 334.219C198.158 345.436 218.926 352.004 240.35 353.35C242.35 353.47 244.33 353.547 246.29 353.58H248.5V354.58H247.39C242.325 354.541 237.266 354.207 232.24 353.58C212.042 351.056 192.697 343.916 175.703 332.714C158.708 321.512 144.521 306.547 134.24 288.98L133.66 287.98C122.299 268.189 116.254 245.796 116.112 222.977C115.97 200.158 121.736 177.69 132.85 157.76L133.41 156.76C142.857 140.176 155.766 125.821 171.259 114.674C186.751 103.527 204.463 95.8477 223.19 92.16C225.143 91.78 227.103 91.4466 229.07 91.16C235.496 90.2027 241.983 89.718 248.48 89.71Z" fill="#E0E0E0"/>
<path d="M247.65 354.56C210.89 354.56 181.6 259.46 181.6 222.14C181.6 202.66 189.83 169.14 201.17 142.32C209.49 122.67 226.71 89.71 248.48 89.71V90.71C212.53 90.71 182.6 186.14 182.6 222.14C182.6 238.84 189.16 271.49 201.68 301.57C209.76 320.99 226.48 353.57 247.68 353.57L247.65 354.56Z" fill="#E0E0E0"/>
<path d="M247.949 90.212L246.383 354.067L247.383 354.073L248.949 90.218L247.949 90.212Z" fill="#E0E0E0"/>
<path d="M244.61 354.56V353.56C317.07 353.56 376.03 294.61 376.03 222.14C376.03 149.67 317.03 90.71 244.61 90.71V89.71C317.61 89.71 377.03 149.12 377.03 222.14C377.03 295.16 317.63 354.56 244.61 354.56Z" fill="#E0E0E0"/>
<path d="M245.44 354.56V353.56C266.61 353.56 283.33 320.99 291.44 301.56C303.97 271.48 310.52 238.83 310.52 222.13C310.52 186.13 280.59 90.7 244.64 90.7V89.7C266.41 89.7 283.64 122.7 291.95 142.31C303.29 169.08 311.52 202.65 311.52 222.13C311.49 259.46 282.2 354.56 245.44 354.56Z" fill="#E0E0E0"/>
<path d="M245.102 90.223L244.102 90.2292L245.76 354.084L246.76 354.078L245.102 90.223Z" fill="#E0E0E0"/>
<path d="M358.38 287.96H296.8H247.73H246.73H245.86H196.82H195.68H135.35H134.19L133.61 286.96H134.76H195.33H196.47H245.85H246.74H247.74H297.16H358.96L358.38 287.96Z" fill="#E0E0E0"/>
<path d="M359.2 155.74H133.36L132.8 156.74H359.8L359.2 155.74Z" fill="#E0E0E0"/>
<path d="M375.31 220.85H115.34V221.85H375.31V220.85Z" fill="#E0E0E0"/>
<path d="M117.04 218.07H116.04V225.39H117.04V218.07Z" fill="#E0E0E0"/>
<path d="M133.28 218.07H132.28V225.39H133.28V218.07Z" fill="#E0E0E0"/>
<path d="M149.52 218.07H148.52V225.39H149.52V218.07Z" fill="#E0E0E0"/>
<path d="M165.75 218.07H164.75V225.39H165.75V218.07Z" fill="#E0E0E0"/>
<path d="M181.99 218.07H180.99V225.39H181.99V218.07Z" fill="#E0E0E0"/>
<path d="M198.22 218.07H197.22V225.39H198.22V218.07Z" fill="#E0E0E0"/>
<path d="M214.46 218.07H213.46V225.39H214.46V218.07Z" fill="#E0E0E0"/>
<path d="M230.69 218.07H229.69V225.39H230.69V218.07Z" fill="#E0E0E0"/>
<path d="M246.93 218.07H245.93V225.39H246.93V218.07Z" fill="#E0E0E0"/>
<path d="M263.17 218.07H262.17V225.39H263.17V218.07Z" fill="#E0E0E0"/>
<path d="M279.4 218.07H278.4V225.39H279.4V218.07Z" fill="#E0E0E0"/>
<path d="M295.64 218.07H294.64V225.39H295.64V218.07Z" fill="#E0E0E0"/>
<path d="M311.87 218.07H310.87V225.39H311.87V218.07Z" fill="#E0E0E0"/>
<path d="M328.11 218.07H327.11V225.39H328.11V218.07Z" fill="#E0E0E0"/>
<path d="M344.34 218.07H343.34V225.39H344.34V218.07Z" fill="#E0E0E0"/>
<path d="M360.58 218.07H359.58V225.39H360.58V218.07Z" fill="#E0E0E0"/>
<path d="M376.82 218.07H375.82V225.39H376.82V218.07Z" fill="#E0E0E0"/>
<path d="M385.33 344.38H375.91V378.15H385.33V344.38Z" fill="#EBEBEB"/>
<path d="M403.83 366.07H394.41V378.14H403.83V366.07Z" fill="#EBEBEB"/>
<path d="M422.32 360.1H412.9V378.14H422.32V360.1Z" fill="#EBEBEB"/>
<path d="M440.82 371.23H431.4V378.15H440.82V371.23Z" fill="#EBEBEB"/>
<path d="M459.32 353.28H449.9V378.14H459.32V353.28Z" fill="#EBEBEB"/>
<path d="M106.98 344.38H38.46V352.77H106.98V344.38Z" fill="#EBEBEB"/>
<path d="M131.47 356.29H38.46V364.68H131.47V356.29Z" fill="#E0E0E0"/>
<path d="M65.59 368.09H38.46V376.48H65.59V368.09Z" fill="#F0F0F0"/>
<path d="M349.237 364.084C351.544 354.306 345.489 344.509 335.712 342.202C325.934 339.894 316.137 345.949 313.83 355.727C311.522 365.504 317.577 375.301 327.355 377.609C337.132 379.917 346.929 373.861 349.237 364.084Z" stroke="#EBEBEB" stroke-width="2" stroke-miterlimit="10"/>
<path d="M331.22 365.95L342.88 359.11L331.61 369.97L331.22 365.95Z" fill="#EBEBEB"/>
<path d="M344.1 368.89L343.29 368.3C344.856 366.138 345.796 363.585 346.004 360.923C346.213 358.261 345.684 355.594 344.474 353.213C343.264 350.833 341.421 348.833 339.147 347.433C336.874 346.033 334.258 345.287 331.588 345.278C328.918 345.269 326.297 345.997 324.014 347.382C321.732 348.766 319.875 350.754 318.649 353.126C317.423 355.498 316.875 358.162 317.066 360.825C317.257 363.488 318.179 366.047 319.73 368.22L318.92 368.8C317.261 366.477 316.276 363.742 316.072 360.895C315.868 358.048 316.454 355.2 317.765 352.664C319.075 350.129 321.061 348.004 323.501 346.524C325.942 345.044 328.744 344.267 331.598 344.277C334.452 344.287 337.248 345.085 339.678 346.582C342.108 348.079 344.078 350.218 345.371 352.763C346.663 355.308 347.229 358.16 347.005 361.005C346.78 363.851 345.775 366.579 344.1 368.89Z" fill="#EBEBEB"/>
<path d="M141.8 72.71H133.31V81.2H141.8V72.71Z" fill="#E0E0E0"/>
<path d="M151.32 72.71H142.83V81.2H151.32V72.71Z" fill="#E6E6E6"/>
<path d="M160.84 72.71H152.35V81.2H160.84V72.71Z" fill="#EBEBEB"/>
<path d="M170.36 72.6001H161.87V81.0901H170.36V72.6001Z" fill="#F0F0F0"/>
<path d="M179.87 72.71H171.38V81.2H179.87V72.71Z" fill="#F5F5F5"/>
<path d="M189.39 72.71H180.9V81.2H189.39V72.71Z" fill="#FAFAFA"/>
<path d="M314.75 88.6099C314.75 90.6099 313.28 91.8499 310.94 91.8499H309.19L308.77 93.9999H306.94L308.51 86.1599H311.68C313.64 86.1699 314.75 87.0799 314.75 88.6099ZM312.91 88.7699C312.91 88.0099 312.37 87.6499 311.46 87.6499H310L309.46 90.3699H311C312.22 90.3699 312.91 89.8099 312.91 88.7699Z" fill="#E0E0E0"/>
<path d="M318.11 87.6299L317.78 89.3299H321.42L321.14 90.7399H317.49L317.13 92.5599H321.4L321.1 93.9999H315L316.57 86.1599H322.49L322.19 87.6199L318.11 87.6299Z" fill="#E0E0E0"/>
<path d="M328.14 91.5899L329.5 93.9999H327.59L326.36 91.8099H324.81L324.38 93.9999H322.55L324.12 86.1599H327.31C329.26 86.1599 330.38 87.0599 330.38 88.5899C330.402 89.2698 330.193 89.9371 329.785 90.4822C329.378 91.0273 328.798 91.4179 328.14 91.5899ZM328.54 88.7699C328.54 88.0099 328 87.6499 327.07 87.6499H325.64L325.09 90.3699H326.64C327.84 90.3699 328.54 89.8099 328.54 88.7699Z" fill="#E0E0E0"/>
<path d="M330.37 93.2699L331.11 91.8699C331.866 92.4078 332.772 92.6946 333.7 92.6899C334.7 92.6899 335.32 92.3399 335.32 91.7699C335.32 90.5199 331.43 91.1899 331.43 88.6899C331.43 87.0799 332.85 86.0399 335.02 86.0399C335.968 86.0085 336.906 86.2404 337.73 86.7099L337 88.0999C336.369 87.6925 335.631 87.4804 334.88 87.4899C333.82 87.4899 333.21 87.8999 333.21 88.4899C333.21 89.7699 337.09 89.0999 337.09 91.4899C337.09 93.1099 335.66 94.1599 333.48 94.1599C332.378 94.1781 331.296 93.8683 330.37 93.2699Z" fill="#E0E0E0"/>
<path d="M338.18 90.74C338.161 90.1057 338.274 89.4743 338.511 88.8855C338.747 88.2967 339.103 87.7632 339.556 87.3182C340.008 86.8732 340.548 86.5265 341.14 86.2997C341.733 86.0728 342.366 85.9708 343 86C345.38 86 346.82 87.39 346.82 89.4C346.84 90.0352 346.728 90.6676 346.492 91.2576C346.256 91.8475 345.901 92.3824 345.448 92.8284C344.995 93.2744 344.455 93.6221 343.862 93.8495C343.269 94.077 342.635 94.1793 342 94.15C339.61 94.15 338.18 92.76 338.18 90.74ZM345.01 89.54C345.027 89.2607 344.982 88.981 344.879 88.7211C344.775 88.4611 344.615 88.2273 344.411 88.0362C344.206 87.8451 343.962 87.7016 343.696 87.6158C343.43 87.53 343.147 87.5041 342.87 87.54C342.472 87.5372 342.079 87.6173 341.714 87.7752C341.349 87.9331 341.021 88.1653 340.751 88.4569C340.481 88.7486 340.275 89.0934 340.145 89.4693C340.016 89.8452 339.967 90.2439 340 90.64C339.981 90.9188 340.025 91.1983 340.127 91.4583C340.23 91.7183 340.388 91.9524 340.592 92.1437C340.796 92.3349 341.039 92.4787 341.305 92.5645C341.571 92.6503 341.853 92.6761 342.13 92.64C342.527 92.6428 342.921 92.5627 343.286 92.4048C343.651 92.2469 343.979 92.0147 344.249 91.723C344.519 91.4313 344.725 91.0866 344.854 90.7107C344.984 90.3348 345.033 89.9361 345 89.54H345.01Z" fill="#E0E0E0"/>
<path d="M356.15 86.1699L354.58 93.9999H353.09L350.17 89.0999L349.17 93.9999H347.38L349 86.1699H350.5L353.42 91.0899L354.42 86.1699H356.15Z" fill="#E0E0E0"/>
<path d="M362 92.3299H358.35L357.35 94.0099H355.41L360.48 86.1699H362.28L364.2 93.9999H362.39L362 92.3299ZM361.7 90.9499L361.04 87.9499L359.19 90.9499H361.7Z" fill="#E0E0E0"/>
<path d="M366.59 86.1699H368.42L367.14 92.5299H371.07L370.77 94.0099H365L366.59 86.1699Z" fill="#E0E0E0"/>
<path d="M339.15 98.75H342.43C344.85 98.75 346.29 100.01 346.29 102.02C346.29 104.78 344.29 106.58 341.41 106.58H337.58L339.15 98.75ZM341.46 105.09C341.861 105.118 342.264 105.06 342.641 104.919C343.017 104.778 343.36 104.558 343.644 104.274C343.928 103.989 344.148 103.647 344.289 103.271C344.43 102.894 344.488 102.491 344.46 102.09C344.46 100.92 343.71 100.2 342.24 100.2H340.68L339.68 105.06L341.46 105.09Z" fill="#E0E0E0"/>
<path d="M352.3 104.9H348.65L347.65 106.58H345.71L350.78 98.75H352.57L354.5 106.58H352.69L352.3 104.9ZM351.99 103.53L351.33 100.53L349.49 103.53H351.99Z" fill="#E0E0E0"/>
<path d="M357.8 100.22H355.29L355.59 98.75H362.42L362.12 100.22H359.62L358.35 106.58H356.53L357.8 100.22Z" fill="#E0E0E0"/>
<path d="M367 104.9H363.35L362.35 106.58H360.41L365.48 98.75H367.28L369.2 106.58H367.39L367 104.9ZM366.7 103.53L366.04 100.53L364.19 103.53H366.7Z" fill="#E0E0E0"/>
<path d="M250 427.01C357.083 427.01 443.89 421.942 443.89 415.69C443.89 409.438 357.083 404.37 250 404.37C142.918 404.37 56.1101 409.438 56.1101 415.69C56.1101 421.942 142.918 427.01 250 427.01Z" fill="#F5F5F5"/>
<path d="M100.51 287.28H83.21V304.58H100.51V287.28Z" fill="#FFB46A"/>
<path opacity="0.3" d="M100.51 287.28H83.21V304.58H100.51V287.28Z" fill="white"/>
<path d="M91.7199 260.71L69.1799 283.25H77.6699V304.58H87.4399V290.66H95.9999V304.58H105.77V283.25H114.27L91.7199 260.71Z" fill="#FFB46A"/>
<path d="M212.12 370.44L113.49 316.21H77.5898V315.21H113.74L113.86 315.27L212.6 369.56L212.12 370.44Z" fill="#FFB46A"/>
<path d="M71.49 198C71.59 206.28 75.08 215 82.29 219.11C84.4457 220.318 86.8298 221.064 89.29 221.3C97.14 222.05 104.94 217.15 108.68 210.2C112.42 203.25 112.42 194.67 109.81 187.2C107.2 179.73 95.69 162.03 86.38 168.2C77.07 174.37 71.36 187 71.49 198Z" fill="#FFB46A"/>
<path opacity="0.7" d="M71.49 198C71.59 206.28 75.08 215 82.29 219.11C84.4457 220.318 86.8298 221.064 89.29 221.3C97.14 222.05 104.94 217.15 108.68 210.2C112.42 203.25 112.42 194.67 109.81 187.2C107.2 179.73 95.69 162.03 86.38 168.2C77.07 174.37 71.36 187 71.49 198Z" fill="white"/>
<path d="M76.0699 207.64C75.917 207.639 75.7681 207.591 75.6443 207.501C75.5205 207.411 75.428 207.285 75.3799 207.14C74.2275 203.404 73.6706 199.509 73.7299 195.6C73.7755 190.078 75.5214 184.704 78.7299 180.21C78.8412 180.054 79.0102 179.948 79.1996 179.916C79.3891 179.884 79.5834 179.929 79.7399 180.04C79.8963 180.151 80.0022 180.32 80.034 180.51C80.0659 180.699 80.0212 180.894 79.9099 181.05C76.8604 185.294 75.1915 190.374 75.1299 195.6C75.0685 199.357 75.6017 203.1 76.7099 206.69C76.7666 206.873 76.7492 207.071 76.6612 207.241C76.5733 207.411 76.4219 207.54 76.2399 207.6C76.1856 207.622 76.1282 207.635 76.0699 207.64Z" fill="#FFB46A"/>
<path d="M86.8101 218.84C86.7504 218.849 86.6897 218.849 86.6301 218.84C84.4526 218.254 82.4323 217.192 80.7151 215.731C78.9978 214.27 77.6265 212.446 76.7001 210.39C76.6574 210.305 76.6318 210.213 76.6248 210.118C76.6178 210.024 76.6294 209.929 76.6592 209.839C76.6889 209.748 76.736 209.665 76.798 209.593C76.8599 209.521 76.9354 209.462 77.0201 209.42C77.1048 209.377 77.197 209.352 77.2916 209.345C77.3862 209.337 77.4813 209.349 77.5713 209.379C77.6614 209.409 77.7447 209.456 77.8166 209.518C77.8884 209.58 77.9474 209.655 77.9901 209.74C78.827 211.609 80.0684 213.27 81.6247 214.601C83.1811 215.933 85.0136 216.902 86.9901 217.44C87.1736 217.493 87.3292 217.616 87.4243 217.782C87.5194 217.948 87.5465 218.144 87.5001 218.33C87.4536 218.477 87.3618 218.605 87.2379 218.697C87.1139 218.788 86.9642 218.838 86.8101 218.84Z" fill="#FFB46A"/>
<path d="M91.25 219.38C91.1555 219.38 91.0618 219.361 90.9745 219.325C90.8871 219.289 90.8078 219.236 90.7409 219.169C90.6741 219.102 90.621 219.023 90.5848 218.936C90.5487 218.848 90.53 218.755 90.53 218.66C90.53 218.565 90.5487 218.472 90.5848 218.384C90.621 218.297 90.6741 218.218 90.7409 218.151C90.8078 218.084 90.8871 218.031 90.9745 217.995C91.0618 217.959 91.1555 217.94 91.25 217.94C99.84 217.94 105.06 212.87 106.75 202.88C106.784 202.69 106.891 202.521 107.048 202.409C107.205 202.297 107.399 202.251 107.59 202.28C107.779 202.314 107.947 202.422 108.058 202.579C108.168 202.736 108.212 202.93 108.18 203.12C106.38 213.76 100.52 219.38 91.25 219.38Z" fill="#FFB46A"/>
<path d="M107.88 200.36H107.82C107.725 200.352 107.633 200.326 107.548 200.283C107.464 200.239 107.389 200.18 107.328 200.107C107.266 200.035 107.22 199.951 107.191 199.86C107.162 199.77 107.152 199.674 107.16 199.58C107.26 198.32 107.32 196.98 107.32 195.58C107.283 191.615 106.299 187.717 104.45 184.21C104.4 184.125 104.368 184.032 104.356 183.934C104.344 183.837 104.353 183.738 104.381 183.644C104.409 183.55 104.456 183.463 104.52 183.388C104.583 183.314 104.662 183.253 104.75 183.21C104.835 183.161 104.928 183.131 105.025 183.119C105.122 183.108 105.221 183.117 105.314 183.145C105.408 183.173 105.495 183.22 105.57 183.283C105.644 183.345 105.706 183.423 105.75 183.51C107.695 187.212 108.724 191.327 108.75 195.51C108.75 196.92 108.7 198.3 108.59 199.6C108.595 199.697 108.581 199.794 108.548 199.885C108.515 199.977 108.463 200.06 108.397 200.131C108.331 200.202 108.251 200.259 108.162 200.298C108.073 200.338 107.977 200.359 107.88 200.36Z" fill="#FFB46A"/>
<path d="M103.91 182.58C103.789 182.58 103.67 182.55 103.563 182.492C103.457 182.434 103.366 182.351 103.3 182.25C101.593 179.493 99.3446 177.111 96.69 175.25C96.611 175.197 96.5433 175.13 96.4905 175.051C96.4377 174.973 96.401 174.884 96.3824 174.791C96.3638 174.698 96.3637 174.603 96.3822 174.51C96.4007 174.417 96.4373 174.329 96.4899 174.25C96.5415 174.17 96.6085 174.101 96.6871 174.048C96.7657 173.994 96.8543 173.957 96.9476 173.938C97.0409 173.919 97.137 173.92 97.2301 173.939C97.3233 173.958 97.4116 173.996 97.4899 174.05C100.299 176.014 102.681 178.528 104.49 181.44C104.542 181.52 104.577 181.609 104.594 181.703C104.611 181.797 104.609 181.893 104.589 181.986C104.568 182.079 104.53 182.167 104.475 182.245C104.42 182.323 104.35 182.389 104.27 182.44C104.165 182.519 104.041 182.568 103.91 182.58Z" fill="#FFB46A"/>
<path d="M82.6799 177.53C82.5347 177.53 82.3928 177.487 82.2727 177.405C82.1526 177.324 82.0599 177.208 82.0069 177.073C81.9539 176.937 81.9431 176.789 81.9757 176.648C82.0084 176.506 82.0831 176.378 82.1899 176.28C85.1899 173.45 88.4999 171.83 91.2499 171.83C92.6863 171.858 94.0992 172.199 95.3899 172.83C95.5637 172.912 95.6976 173.06 95.7623 173.241C95.827 173.422 95.8172 173.621 95.7349 173.795C95.6527 173.969 95.5049 174.102 95.3239 174.167C95.1429 174.232 94.9437 174.222 94.7699 174.14C93.6768 173.584 92.4755 173.274 91.2499 173.23C88.8699 173.23 85.9299 174.71 83.1799 177.3C83.0497 177.439 82.8702 177.521 82.6799 177.53Z" fill="#FFB46A"/>
<path d="M77.8701 202.54C77.7014 202.54 77.5379 202.481 77.4081 202.374C77.2783 202.266 77.1906 202.116 77.1601 201.95C76.79 199.914 76.6092 197.849 76.6201 195.78C76.6201 184.54 85.5301 176.09 91.3001 176.09C93.0023 176.168 94.6527 176.699 96.0801 177.63C96.1622 177.679 96.2337 177.744 96.2904 177.821C96.3471 177.899 96.3878 177.986 96.4101 178.079C96.4325 178.173 96.436 178.269 96.4206 178.364C96.4051 178.458 96.371 178.549 96.3201 178.63C96.2204 178.795 96.0592 178.915 95.8718 178.962C95.6843 179.008 95.4859 178.979 95.3201 178.88C94.1294 178.086 92.7487 177.623 91.3201 177.54C86.1001 177.54 78.0901 185.72 78.0901 195.79C78.0797 197.771 78.2504 199.749 78.6001 201.7C78.6174 201.793 78.6161 201.889 78.5963 201.982C78.5765 202.074 78.5386 202.162 78.4847 202.24C78.4308 202.318 78.362 202.385 78.2823 202.436C78.2025 202.488 78.1134 202.523 78.0201 202.54H77.8701Z" fill="#FFB46A"/>
<path d="M83.12 212.69C82.9527 212.692 82.7901 212.635 82.66 212.53C80.5312 210.657 78.9574 208.236 78.11 205.53C78.0769 205.441 78.0621 205.346 78.0664 205.251C78.0707 205.156 78.0941 205.063 78.1352 204.977C78.1762 204.891 78.2341 204.814 78.3053 204.751C78.3766 204.688 78.4598 204.64 78.55 204.61C78.7304 204.549 78.9276 204.561 79.0995 204.643C79.2714 204.725 79.4044 204.871 79.47 205.05C80.2435 207.495 81.6677 209.683 83.59 211.38C83.703 211.476 83.7839 211.604 83.8216 211.747C83.8593 211.89 83.8519 212.041 83.8006 212.18C83.7492 212.319 83.6563 212.438 83.5345 212.522C83.4127 212.607 83.268 212.651 83.12 212.65V212.69Z" fill="#FFB46A"/>
<path d="M91.3 215.47C89.3913 215.491 87.4975 215.131 85.73 214.41C85.5659 214.326 85.4398 214.182 85.377 214.009C85.3143 213.835 85.3195 213.644 85.3917 213.475C85.464 213.305 85.5978 213.169 85.7663 213.094C85.9348 213.019 86.1255 213.01 86.3 213.07C87.8822 213.737 89.583 214.077 91.3 214.07C102.82 214.07 104.54 202.64 104.54 195.83C104.54 195.639 104.616 195.456 104.751 195.321C104.886 195.186 105.069 195.11 105.26 195.11C105.451 195.11 105.634 195.186 105.769 195.321C105.904 195.456 105.98 195.639 105.98 195.83C106 208.48 100.77 215.47 91.3 215.47Z" fill="#FFB46A"/>
<path d="M105.08 193.87C104.905 193.871 104.735 193.807 104.604 193.691C104.473 193.575 104.39 193.414 104.37 193.24C103.702 188.516 101.457 184.157 97.9999 180.87C97.931 180.804 97.8756 180.726 97.8371 180.639C97.7985 180.552 97.7774 180.458 97.7751 180.363C97.7704 180.17 97.8423 179.984 97.9749 179.845C98.1075 179.706 98.29 179.625 98.4822 179.62C98.6745 179.615 98.8607 179.687 98.9999 179.82C102.721 183.324 105.14 187.989 105.86 193.05C105.873 193.144 105.867 193.239 105.842 193.331C105.818 193.422 105.776 193.508 105.718 193.584C105.66 193.659 105.589 193.722 105.507 193.769C105.424 193.817 105.334 193.848 105.24 193.86L105.08 193.87Z" fill="#FFB46A"/>
<path d="M91.36 211.55C84.05 211.55 79.51 205.55 79.51 195.95C79.5473 192.081 80.87 188.335 83.27 185.3C83.3284 185.225 83.4011 185.162 83.4837 185.116C83.5663 185.069 83.6574 185.039 83.7516 185.027C83.8459 185.016 83.9415 185.023 84.033 185.048C84.1245 185.073 84.2102 185.116 84.285 185.175C84.3599 185.233 84.4225 185.306 84.4693 185.389C84.5161 185.471 84.5461 185.562 84.5577 185.656C84.5693 185.751 84.5623 185.846 84.5369 185.938C84.5116 186.029 84.4684 186.115 84.41 186.19C82.2101 188.987 81.0096 192.441 81 196C81 204.86 84.89 210.15 91.4 210.15C93.2143 210.198 95.0066 209.744 96.58 208.84C96.7254 208.811 96.8761 208.828 97.0119 208.887C97.1477 208.946 97.2623 209.045 97.3405 209.171C97.4186 209.297 97.4566 209.444 97.4494 209.592C97.4421 209.74 97.3901 209.882 97.3 210C95.5002 211.053 93.4449 211.589 91.36 211.55Z" fill="#FFB46A"/>
<path d="M99.6099 207.64C99.4557 207.638 99.3057 207.589 99.1799 207.5C99.0285 207.386 98.9279 207.218 98.8998 207.031C98.8717 206.843 98.9184 206.653 99.0299 206.5C100.81 204.07 101.76 200.43 101.76 195.96C101.76 188.14 95.4599 181.8 91.3599 181.8C89.852 181.908 88.4138 182.477 87.2399 183.43C87.0849 183.538 86.8941 183.581 86.7076 183.551C86.5211 183.522 86.3535 183.421 86.2399 183.27C86.1839 183.194 86.1437 183.108 86.1214 183.016C86.0991 182.925 86.0953 182.829 86.1102 182.736C86.1251 182.643 86.1584 182.554 86.2081 182.474C86.2579 182.394 86.323 182.325 86.3999 182.27C87.8229 181.122 89.5739 180.457 91.3999 180.37C96.0599 180.37 103.24 187.07 103.24 195.97C103.24 200.75 102.24 204.69 100.24 207.36C100.167 207.456 100.071 207.532 99.9611 207.581C99.8509 207.63 99.73 207.651 99.6099 207.64Z" fill="#FFB46A"/>
<path d="M85.7299 205.19C85.6273 205.189 85.526 205.166 85.4329 205.123C85.3397 205.08 85.2569 205.018 85.1899 204.94C83.3899 202.94 82.3999 199.78 82.3999 196.12C82.3999 189.92 87.3999 184.61 91.3999 184.61C92.1433 184.618 92.8776 184.775 93.5599 185.07C93.6548 185.105 93.7411 185.16 93.8133 185.232C93.8854 185.303 93.9417 185.388 93.9785 185.483C94.0153 185.577 94.0318 185.678 94.0269 185.779C94.0219 185.88 93.9957 185.98 93.9499 186.07C93.9148 186.158 93.8625 186.238 93.7959 186.306C93.7293 186.373 93.6499 186.427 93.5622 186.463C93.4746 186.5 93.3806 186.518 93.2857 186.518C93.1909 186.517 93.0971 186.497 93.0099 186.46C92.5026 186.234 91.9552 186.111 91.3999 186.1C88.3999 186.1 83.8399 190.43 83.8399 196.17C83.8399 199.47 84.6999 202.27 86.2599 204.03C86.3817 204.172 86.4435 204.355 86.4323 204.542C86.4211 204.729 86.3378 204.904 86.1999 205.03C86.068 205.139 85.9009 205.196 85.7299 205.19Z" fill="#FFB46A"/>
<path d="M91.4099 207.64C90.2118 207.649 89.0243 207.414 87.9199 206.95C87.7643 206.86 87.6471 206.717 87.5909 206.546C87.5347 206.375 87.5433 206.19 87.6151 206.026C87.6868 205.861 87.8168 205.729 87.98 205.654C88.1432 205.579 88.3283 205.567 88.4999 205.62C89.4201 206.009 90.4109 206.203 91.4099 206.19C98.2399 206.19 98.9799 199.19 98.9799 196.12C98.9526 194.536 98.5963 192.975 97.9335 191.535C97.2708 190.096 96.316 188.811 95.1299 187.76C94.9905 187.635 94.9053 187.461 94.8923 187.274C94.8792 187.088 94.9393 186.903 95.0599 186.76C95.1861 186.623 95.36 186.539 95.546 186.526C95.7319 186.513 95.9158 186.572 96.0599 186.69C97.4091 187.87 98.4934 189.322 99.2414 190.95C99.9894 192.579 100.384 194.348 100.4 196.14C100.42 203.33 97.0599 207.64 91.4099 207.64Z" fill="#FFB46A"/>
<path d="M91.47 203.72C88.47 203.72 86.21 201.72 85.47 198.44C85.438 198.342 85.4269 198.239 85.4374 198.137C85.448 198.035 85.4799 197.937 85.5311 197.848C85.5823 197.759 85.6516 197.682 85.7346 197.621C85.8176 197.561 85.9123 197.519 86.0127 197.498C86.113 197.477 86.2167 197.477 86.317 197.498C86.4173 197.52 86.5119 197.562 86.5947 197.623C86.6774 197.684 86.7465 197.761 86.7974 197.85C86.8483 197.939 86.8798 198.038 86.89 198.14C87.44 200.77 89.1 202.27 91.43 202.27C94.91 202.27 96.15 199.18 96.15 196.27C96.1526 196.078 96.2307 195.895 96.3673 195.76C96.5039 195.625 96.6881 195.55 96.88 195.55C97.071 195.55 97.2541 195.626 97.3891 195.761C97.5241 195.896 97.6 196.079 97.6 196.27C97.64 200.81 95.22 203.72 91.47 203.72Z" fill="#FFB46A"/>
<path d="M86 197C85.8064 197 85.6207 196.923 85.4838 196.786C85.3469 196.649 85.27 196.463 85.27 196.27C85.27 192.09 88.59 188.85 91.45 188.85C93.65 188.85 96.01 190.76 97.06 193.4C97.0958 193.488 97.1138 193.582 97.1131 193.677C97.1123 193.772 97.0928 193.866 97.0556 193.953C97.0184 194.04 96.9643 194.12 96.8964 194.186C96.8286 194.252 96.7482 194.305 96.66 194.34C96.4807 194.406 96.2827 194.401 96.1075 194.324C95.9323 194.248 95.7934 194.106 95.72 193.93C94.91 191.93 93.03 190.29 91.45 190.29C89.32 190.29 86.72 193.05 86.72 196.29C86.7149 196.478 86.6371 196.657 86.5029 196.79C86.3687 196.922 86.1885 196.997 86 197Z" fill="#FFB46A"/>
<path d="M91.52 199.8C91.0667 199.825 90.6131 199.757 90.1868 199.601C89.7606 199.444 89.3708 199.203 89.0411 198.89C88.7114 198.578 88.4488 198.202 88.2693 197.785C88.0899 197.368 87.9973 196.919 87.9973 196.465C87.9973 196.011 88.0899 195.562 88.2693 195.145C88.4488 194.728 88.7114 194.352 89.0411 194.04C89.3708 193.727 89.7606 193.486 90.1868 193.329C90.6131 193.173 91.0667 193.105 91.52 193.13C91.711 193.13 91.8941 193.206 92.0291 193.341C92.1641 193.476 92.24 193.659 92.24 193.85C92.24 194.041 92.1641 194.224 92.0291 194.359C91.8941 194.494 91.711 194.57 91.52 194.57C91.1438 194.568 90.7755 194.678 90.4617 194.885C90.1479 195.093 89.9029 195.389 89.7575 195.736C89.6122 196.083 89.5731 196.465 89.6453 196.834C89.7175 197.204 89.8976 197.543 90.163 197.81C90.4283 198.077 90.7668 198.259 91.1356 198.333C91.5045 198.407 91.887 198.37 92.2348 198.226C92.5825 198.083 92.8799 197.839 93.0891 197.527C93.2983 197.214 93.41 196.846 93.41 196.47C93.413 196.209 93.3612 195.951 93.2578 195.711C93.1545 195.472 93.0019 195.257 92.81 195.08C92.6849 194.944 92.6155 194.765 92.6155 194.58C92.6155 194.395 92.6849 194.216 92.81 194.08C92.9442 193.95 93.1235 193.878 93.31 193.878C93.4965 193.878 93.6758 193.95 93.81 194.08C94.3041 194.535 94.6492 195.128 94.7999 195.783C94.9505 196.437 94.8998 197.122 94.6543 197.747C94.4088 198.372 93.98 198.909 93.4242 199.286C92.8684 199.663 92.2116 199.863 91.54 199.86L91.52 199.8Z" fill="#FFB46A"/>
<path d="M141.979 157.929L107.719 176.958L108.205 177.833L142.464 158.803L141.979 157.929Z" fill="#FFB46A"/>
<path d="M222.89 119.29L188.73 100.35H113.46V99.3499H188.99L223.37 118.42L222.89 119.29Z" fill="#FFB46A"/>
<path d="M109.94 110.69H69.27L72.84 95.8398H106.36L109.94 110.69Z" fill="#FFB46A"/>
<path opacity="0.3" d="M109.94 110.69H69.27L72.84 95.8398H106.36L109.94 110.69Z" fill="white"/>
<path d="M89.6001 67.1499C86.6119 67.1526 83.7469 68.3408 81.6339 70.4537C79.5209 72.5667 78.3327 75.4317 78.3301 78.4199C78.3301 84.6499 89.6001 101.06 89.6001 101.06C89.6001 101.06 100.88 84.6499 100.88 78.4199C100.877 75.43 99.6878 72.5635 97.5727 70.4502C95.4576 68.337 92.59 67.1499 89.6001 67.1499ZM89.6001 83.9999C88.5831 83.9999 87.5889 83.6982 86.7434 83.133C85.8979 82.5677 85.2391 81.7644 84.8504 80.8246C84.4616 79.8848 84.3604 78.8508 84.5596 77.8535C84.7587 76.8561 85.2493 75.9403 85.9691 75.2218C86.6889 74.5034 87.6057 74.0146 88.6035 73.8175C89.6012 73.6203 90.635 73.7235 91.574 74.114C92.513 74.5046 93.3151 75.165 93.8787 76.0116C94.4423 76.8581 94.7421 77.8529 94.7401 78.8699C94.7401 79.5444 94.6071 80.2123 94.3486 80.8354C94.0902 81.4584 93.7114 82.0244 93.234 82.5009C92.7566 82.9774 92.1899 83.3551 91.5663 83.6123C90.9428 83.8695 90.2746 84.0012 89.6001 83.9999Z" fill="#FFB46A"/>
<path d="M70.6401 104.98L76.1401 104.97L100.98 100.7H107.54L107.3 99.7L100.89 99.71L76.0501 103.98H70.8801L70.6401 104.98Z" fill="white"/>
<path d="M422.38 71.76H378.63V115.51H422.38V71.76Z" fill="#FFB46A"/>
<path opacity="0.3" d="M422.38 71.76H378.63V115.51H422.38V71.76Z" fill="white"/>
<path d="M418.33 75.8H382.67V111.46H418.33V75.8Z" fill="#F5F5F5"/>
<path d="M407.79 89.9301C407.832 91.3576 407.557 92.7767 406.982 94.0844C406.408 95.392 405.55 96.5554 404.47 97.4901C403.447 98.3302 402.164 98.7895 400.84 98.7895C399.516 98.7895 398.233 98.3302 397.21 97.4901C396.13 96.5554 395.272 95.392 394.698 94.0844C394.123 92.7767 393.848 91.3576 393.89 89.9301C393.89 85.0401 394.77 81.0701 400.84 81.0701C406.91 81.0701 407.79 85.0001 407.79 89.9301Z" fill="#FFB46A"/>
<path d="M414.48 109V111.5H387.2V109C387.2 104.25 389.96 101.06 394.88 100.45L395.81 100.39C396.181 100.39 396.537 100.242 396.8 99.9799C397.062 99.7174 397.21 99.3613 397.21 98.99V97.49C398.233 98.3302 399.516 98.7894 400.84 98.7894C402.164 98.7894 403.447 98.3302 404.47 97.49V99C404.47 99.3713 404.617 99.7274 404.88 99.9899C405.143 100.252 405.499 100.4 405.87 100.4L406.8 100.46C411.72 101 414.48 104.22 414.48 109Z" fill="#FFB46A"/>
<path d="M268.78 97.3599L268.29 96.4799L302.68 77.4099H369.36V78.4099H302.94L268.78 97.3599Z" fill="#FFB46A"/>
<path d="M414.27 187.5H419.33C415.02 191.99 408.81 196.42 402.91 200.9L398.91 203.84L398.82 203.9L394.92 200.64C389.92 196.33 384.69 191.83 380.98 187.36H388.49L391.78 176.07L396.69 197.71L401.26 186.63L404.11 192.81L407.46 182L411.2 192.56L414.27 187.5Z" fill="#FFB46A"/>
<path opacity="0.3" d="M414.27 187.5H419.33C415.02 191.99 408.81 196.42 402.91 200.9L398.91 203.84L398.82 203.9L394.92 200.64C389.92 196.33 384.69 191.83 380.98 187.36H388.49L391.78 176.07L396.69 197.71L401.26 186.63L404.11 192.81L407.46 182L411.2 192.56L414.27 187.5Z" fill="white"/>
<path d="M420.4 185.34H413.61L411.48 188.85L407.39 177.3L403.89 188.58L401.19 182.72L397 192.87L391.9 170.44L387.61 185.2H380C375.35 179.2 373.79 173.28 379.8 168.03C387.32 161.45 396.03 167.58 400.44 171.56C405.09 167.87 415.3 160.32 423.13 170.14C427.1 175.07 424.73 180.44 420.4 185.34Z" fill="#FFB46A"/>
<path d="M369.36 187.43H334.6L334.49 187.36L274.84 154.28L275.32 153.4L334.86 186.43H369.36V187.43Z" fill="#FFB46A"/>
<path d="M414.25 290.76C414.25 295.61 410.91 299.86 404.05 301.15C402.546 301.425 401.019 301.558 399.49 301.55C398.598 301.552 397.707 301.508 396.82 301.42C392.24 301 387.91 299.52 385.33 297.52L388.06 291.46C390.672 293.27 393.673 294.442 396.82 294.88C397.72 295.02 398.629 295.09 399.54 295.09C401.078 295.153 402.613 294.901 404.05 294.35C404.686 294.146 405.241 293.745 405.636 293.207C406.032 292.668 406.246 292.018 406.25 291.35C406.25 290.02 405.4 289.15 404.05 288.49C402.26 287.61 399.57 287.12 396.82 286.44C391.55 285.14 386.03 283.14 386.03 276.39C386.03 271.31 389.55 266.97 396.82 265.85C398.1 265.651 399.394 265.555 400.69 265.56C401.813 265.56 402.936 265.63 404.05 265.77C407.127 266.083 410.1 267.062 412.76 268.64L410.28 274.75C408.345 273.627 406.241 272.824 404.05 272.37C402.928 272.137 401.786 272.02 400.64 272.02C399.346 271.987 398.055 272.169 396.82 272.56C394.82 273.25 394.03 274.56 394.03 275.99C394.03 277.42 395.13 278.39 396.82 279.06C399.194 279.823 401.608 280.457 404.05 280.96C409.13 282.26 414.25 284.34 414.25 290.76Z" fill="#FFB46A"/>
<path d="M404.05 261.65V265.78C402.935 265.64 401.813 265.57 400.69 265.57C399.394 265.564 398.1 265.661 396.82 265.86V261.65H404.05Z" fill="#FFB46A"/>
<path d="M404.05 301.15V305.06H396.82V301.42C397.707 301.508 398.598 301.552 399.49 301.55C401.019 301.558 402.546 301.424 404.05 301.15Z" fill="#FFB46A"/>
<path opacity="0.3" d="M404.05 261.65V265.78C402.935 265.64 401.813 265.57 400.69 265.57C399.394 265.564 398.1 265.661 396.82 265.86V261.65H404.05Z" fill="white"/>
<path opacity="0.3" d="M404.05 301.15V305.06H396.82V301.42C397.707 301.508 398.598 301.552 399.49 301.55C401.019 301.558 402.546 301.424 404.05 301.15Z" fill="white"/>
<path d="M399.61 257.91L316.9 210.93H281.01V209.93H317.17L317.28 209.99L400.11 257.04L399.61 257.91Z" fill="#FFB46A"/>
<path d="M253.5 386.95L261.57 388.49L266.16 364.8L255.75 363.56L253.5 386.95Z" fill="#FFC2BC"/>
<path d="M263.25 387L252.54 383.67C252.337 383.607 252.119 383.617 251.923 383.699C251.727 383.782 251.567 383.931 251.47 384.12L246.68 392.43C246.495 392.759 246.438 393.145 246.519 393.514C246.6 393.882 246.814 394.208 247.12 394.43C247.233 394.51 247.358 394.57 247.49 394.61C251.26 395.81 253.05 396.32 257.75 397.8C260.66 398.7 268.81 402.8 272.98 402.8C277.15 402.8 277.98 398.45 276.25 398.04C268.71 396.19 266.18 390.97 264.56 388.04C264.268 387.542 263.801 387.172 263.25 387Z" fill="#263238"/>
<path opacity="0.2" d="M266.16 364.81L263.9 376.44L254.59 375.68L255.75 363.56L266.16 364.81Z" fill="black"/>
<path d="M259.42 181.19C263.51 181.87 266.67 180.33 268.87 183.9C269.6 185.09 270.58 190.44 270.98 191.85C275.98 209.41 286.38 268.17 283.41 300.92C280.76 330.1 268.77 370.53 268.77 370.53L252.61 372.06C252.61 372.06 258.73 310.13 259.4 286C260.55 244.7 243.1 178.47 243.1 178.47L259.42 181.19Z" fill="#263238"/>
<path d="M271.37 373.62L251.16 372.69L251.8 364.54L271.96 366.31L271.37 373.62Z" fill="#FFB46A"/>
<path opacity="0.2" d="M255.08 200.65L250.8 212.23C253.99 227.72 259.14 254.93 259.45 282.64C265.42 260.34 258 211.37 255.08 200.65Z" fill="black"/>
<path d="M222.02 382.63L231.24 384.39L235.55 361.18L225.52 359.61L222.02 382.63Z" fill="#FFC2BC"/>
<path d="M231.39 383.5L222.06 378.24C221.896 378.141 221.7 378.11 221.513 378.153C221.327 378.196 221.164 378.31 221.06 378.47L215.36 386.57C215.134 386.921 215.048 387.345 215.12 387.756C215.193 388.168 215.417 388.537 215.75 388.79L215.91 388.89C219.18 390.67 220.86 391.35 224.91 393.68C227.45 395.15 233.79 399.54 237.28 401.5C240.77 403.46 243.55 399.07 242.28 397.94C236.49 392.75 233.72 388.04 232.51 384.84C232.3 384.279 231.905 383.806 231.39 383.5Z" fill="#263238"/>
<path opacity="0.2" d="M225.46 359.86L235.44 361.77L233.25 373.56L223.65 371.74L225.46 359.86Z" fill="black"/>
<path d="M252.74 177.7C252.74 177.7 264.25 218.33 254.74 285C251.305 313.829 244.684 342.189 235 369.56L223.13 364C223.13 364 226.28 311.13 228.75 289.71C233.82 245.84 226.22 209.71 225.2 190.87C225.017 188.198 225.853 185.557 227.54 183.477C229.226 181.397 231.638 180.033 234.29 179.66L252.74 177.7Z" fill="#263238"/>
<path d="M237.33 371.23L220.3 367.86L220.67 360.92L239.71 364.54L237.33 371.23Z" fill="#FFB46A"/>
<path d="M235.4 387.7C235.674 387.566 235.896 387.344 236.03 387.07C236.103 386.955 236.147 386.823 236.158 386.687C236.168 386.551 236.145 386.415 236.09 386.29C235.55 385.17 232.19 384.79 231.81 384.74C231.775 384.734 231.74 384.739 231.708 384.753C231.676 384.767 231.649 384.79 231.63 384.82C231.608 384.853 231.597 384.891 231.597 384.93C231.597 384.969 231.608 385.007 231.63 385.04C232.39 386.04 233.88 387.82 235.05 387.74C235.168 387.747 235.287 387.734 235.4 387.7ZM232.24 385.23C233.39 385.39 235.44 385.82 235.77 386.51C235.801 386.57 235.818 386.637 235.818 386.705C235.818 386.773 235.801 386.84 235.77 386.9C235.707 387.04 235.61 387.162 235.488 387.255C235.366 387.348 235.222 387.408 235.07 387.43C234.38 387.43 233.36 386.62 232.26 385.19L232.24 385.23Z" fill="#FFB46A"/>
<path d="M234.73 384.65C235.192 384.492 235.587 384.182 235.85 383.77C235.936 383.606 235.963 383.418 235.929 383.237C235.894 383.055 235.8 382.891 235.66 382.77C235.548 382.646 235.41 382.549 235.256 382.485C235.103 382.421 234.936 382.392 234.77 382.4C233.42 382.47 231.72 384.69 231.65 384.78C231.636 384.81 231.628 384.842 231.628 384.875C231.628 384.908 231.636 384.94 231.65 384.97C231.657 385.004 231.674 385.036 231.699 385.061C231.724 385.086 231.756 385.103 231.79 385.11C232.792 385.188 233.799 385.03 234.73 384.65ZM234.29 382.96C234.448 382.888 234.617 382.844 234.79 382.83C234.904 382.822 235.019 382.84 235.124 382.883C235.23 382.927 235.325 382.994 235.4 383.08C235.47 383.143 235.518 383.225 235.54 383.316C235.561 383.407 235.554 383.503 235.52 383.59C235.18 384.28 233.26 384.8 232.17 384.78C232.753 384.053 233.473 383.448 234.29 383V382.96Z" fill="#FFB46A"/>
<path d="M267.5 390.41C268.217 390.697 269.01 390.732 269.75 390.51C269.949 390.437 270.127 390.317 270.27 390.16C270.413 390.003 270.515 389.815 270.57 389.61C270.618 389.502 270.637 389.383 270.625 389.265C270.613 389.148 270.57 389.035 270.5 388.94C269.72 387.94 265.32 388.65 264.81 388.73C264.771 388.736 264.735 388.755 264.708 388.784C264.681 388.813 264.664 388.85 264.66 388.89C264.652 388.93 264.656 388.971 264.672 389.009C264.688 389.047 264.715 389.078 264.75 389.1C265.619 389.63 266.54 390.069 267.5 390.41ZM269.75 388.94C269.902 388.972 270.041 389.049 270.15 389.16C270.174 389.204 270.187 389.254 270.187 389.305C270.187 389.356 270.174 389.405 270.15 389.45C270.108 389.602 270.031 389.742 269.925 389.858C269.819 389.974 269.687 390.064 269.54 390.12C268.47 390.55 266.42 389.59 265.34 389.01C266.79 388.765 268.27 388.765 269.72 389.01L269.75 388.94Z" fill="#FFB46A"/>
<path d="M264.72 389.12H264.8C266.1 388.96 269.12 387.63 269.28 386.55C269.28 386.32 269.22 385.99 268.72 385.77C266.72 384.82 264.72 388.65 264.57 388.83C264.556 388.861 264.548 388.895 264.548 388.93C264.548 388.964 264.556 388.998 264.57 389.03C264.609 389.076 264.661 389.107 264.72 389.12ZM268.44 386.12L268.59 386.18C268.94 386.34 268.92 386.49 268.9 386.54C268.81 387.23 266.6 388.4 265.14 388.71C265.66 387.84 267.09 385.71 268.44 386.12Z" fill="#FFB46A"/>
<path d="M335.2 142.19C335.2 142.19 335.96 136.6 336.64 136.8C337.32 137 342.59 135.98 344.96 135.53C345.683 135.401 346.426 135.459 347.12 135.7L352.48 137.56C352.812 137.672 353.088 137.909 353.248 138.221C353.409 138.533 353.441 138.894 353.34 139.23L352.34 142.43C352.271 142.688 352.128 142.919 351.929 143.097C351.73 143.275 351.484 143.39 351.22 143.43L345.02 144.26C344.506 144.329 343.984 144.302 343.48 144.18L335.2 142.19Z" fill="#FFC2BC"/>
<path d="M332.7 136.6L340.09 133.85C340.09 133.85 343.89 137.02 342.63 140.37C341.37 143.72 339.58 144.06 339.58 144.06C339.58 144.06 336.58 146.54 332.36 144.06C328.14 141.58 332.7 136.6 332.7 136.6Z" fill="#FFB46A"/>
<path d="M267.13 122.77C274.36 125.08 292.85 131.25 301.57 134.62C305.57 136.18 321.94 135.18 329.03 135.62C330.854 135.928 332.629 136.476 334.31 137.25L333.31 142.65C333.31 142.65 332.31 145.11 330.08 145.55C321.76 147.2 301.13 148.84 296.7 147.73C283.83 144.51 262.35 138.73 260.75 135.45C258.32 130.6 261.57 121 267.13 122.77Z" fill="#FFB46A"/>
<path opacity="0.2" d="M283.16 144.16L271.26 140.32C271.261 138.727 271.181 137.135 271.02 135.55C275.71 140.66 283.16 144.16 283.16 144.16Z" fill="black"/>
<path d="M153.52 152.73C153.52 152.73 152.76 147.14 152.08 147.34C151.4 147.54 146.08 146.52 143.76 146.07C143.037 145.936 142.292 145.994 141.6 146.24L136.24 148.1C135.908 148.212 135.632 148.449 135.472 148.761C135.311 149.073 135.278 149.434 135.38 149.77L136.38 152.97C136.455 153.22 136.601 153.442 136.799 153.611C136.998 153.779 137.241 153.887 137.5 153.92L143.71 154.76C144.22 154.829 144.739 154.801 145.24 154.68L153.52 152.73Z" fill="#FFC2BC"/>
<path d="M159.05 145.39H150.2C150.2 145.39 147 147.8 148.67 151C149.492 152.762 150.908 154.178 152.67 155L159.28 153.32C163.65 148.9 159.05 145.39 159.05 145.39Z" fill="#FFB46A"/>
<path d="M229.22 135.32C228.717 136.209 227.985 136.948 227.1 137.46C225.87 138.31 224.591 139.088 223.27 139.79C215.99 143.79 203.67 148.85 195.2 152.21C190.96 153.89 170.29 154.97 161.83 154.43C159.58 154.29 158.25 151.98 158.25 151.98L156.52 146.77C158.077 145.782 159.759 145.006 161.52 144.46C168.52 143.08 184.82 141.93 188.6 139.86C196.81 135.37 214.33 126.86 221.19 123.59C226.48 121.11 231 130.19 229.22 135.32Z" fill="#FFB46A"/>
<path opacity="0.2" d="M260.1 121.62L252 136.15C252 136.15 235.38 121.32 235.08 121.32L239.01 121.09L242.61 124.09L251.19 131.16L256.34 121.3L260.1 121.62Z" fill="black"/>
<path opacity="0.2" d="M224.14 154.29C224.07 151.83 223.55 143.6 223.26 139.8C224.581 139.098 225.859 138.32 227.09 137.47C227.9 140.14 224.2 156.75 224.14 154.29Z" fill="black"/>
<path d="M256.36 121.26L251.21 131.12L242.63 124.05C243.665 124.907 244.878 125.521 246.182 125.848C247.485 126.175 248.845 126.205 250.162 125.938C251.479 125.67 252.719 125.111 253.791 124.302C254.864 123.492 255.741 122.453 256.36 121.26Z" fill="#263238"/>
<path d="M256.36 121.26C255.741 122.453 254.864 123.492 253.791 124.301C252.719 125.111 251.479 125.67 250.162 125.937C248.845 126.205 247.485 126.174 246.182 125.848C244.878 125.521 243.665 124.907 242.63 124.05L239.03 121.05C242.97 117.36 241.98 107.14 240.94 101.54L251.51 107.31C252.1 113.53 250.19 119.7 256.36 121.26Z" fill="#FFC2BC"/>
<path opacity="0.2" d="M243.9 111.09C243.9 111.09 246.02 119.69 252.74 118.79C252.74 118.79 252.37 118.99 251.74 115C251.363 112.468 251.289 109.9 251.52 107.35C251.52 107.35 244.35 107.55 243.9 111.09Z" fill="black"/>
<path d="M236.32 98.2998C240.11 106.84 241.52 110.53 247.6 113.36C256.74 117.63 266.38 111.12 265.23 101.64C264.23 93.0898 258.18 80.5798 248.34 80.2798C244.963 80.1692 241.68 81.4035 239.213 83.7117C236.745 86.0198 235.295 89.213 235.18 92.5898C235.11 94.556 235.5 96.5113 236.32 98.2998Z" fill="#FFC2BC"/>
<path d="M235.45 106.88C250.87 105.2 240.17 88.6498 253.24 81.5298C249.84 75.5298 240.24 74.7998 229.73 82.8098C220.79 89.6198 235.45 106.88 235.45 106.88Z" fill="#263238"/>
<path d="M242.52 79.3699C242.52 79.3699 259.32 84.3699 261.84 90.8499C261.84 90.8499 262.49 77.3199 256.52 76.9699C250.55 76.6199 239.61 75.4099 242.52 79.3699Z" fill="#263238"/>
<path d="M236.29 107.83C237.684 108.992 239.481 109.557 241.29 109.4C243.66 109.17 244 106.84 242.62 105.04C241.39 103.41 238.62 101.62 236.62 102.69C236.27 102.89 235.963 103.157 235.716 103.476C235.469 103.795 235.288 104.16 235.182 104.549C235.076 104.938 235.048 105.344 235.099 105.744C235.15 106.144 235.28 106.53 235.48 106.88C235.684 107.247 235.96 107.57 236.29 107.83Z" fill="#FFC2BC"/>
<path d="M250.47 95.8198C250.73 96.5198 251.33 96.9498 251.79 96.8198C252.25 96.6898 252.42 95.9298 252.15 95.2198C251.88 94.5098 251.3 94.0898 250.84 94.2198C250.38 94.3498 250.21 95.1098 250.47 95.8198Z" fill="#263238"/>
<path d="M258.5 92.8299C258.77 93.5399 259.35 93.9599 259.83 93.8299C260.31 93.6999 260.46 92.9499 260.18 92.2299C259.9 91.5099 259.34 91.0999 258.87 91.2299C258.4 91.3599 258.2 92.1099 258.5 92.8299Z" fill="#263238"/>
<path d="M256.83 94.8398C258.068 96.2286 259.491 97.4401 261.06 98.4398C260.792 98.8321 260.443 99.1614 260.035 99.4049C259.628 99.6484 259.172 99.8002 258.7 99.8498L256.83 94.8398Z" fill="#EC837E"/>
<path d="M260.76 103.12C260.782 103.108 260.801 103.091 260.816 103.071C260.831 103.051 260.842 103.028 260.848 103.003C260.853 102.979 260.854 102.953 260.849 102.929C260.844 102.904 260.834 102.881 260.82 102.86C260.784 102.829 260.738 102.812 260.69 102.812C260.642 102.812 260.596 102.829 260.56 102.86C259.063 103.917 257.23 104.386 255.41 104.18C255.369 104.156 255.322 104.148 255.275 104.157C255.229 104.166 255.188 104.192 255.16 104.23C255.128 104.262 255.11 104.305 255.11 104.35C255.11 104.395 255.128 104.438 255.16 104.47C257.131 104.763 259.139 104.279 260.76 103.12Z" fill="#263238"/>
<path d="M247.61 90.66C247.661 90.6768 247.715 90.6801 247.768 90.6696C247.82 90.6591 247.869 90.6351 247.91 90.6C248.276 90.2702 248.716 90.0327 249.193 89.9075C249.669 89.7822 250.169 89.7728 250.65 89.88C250.733 89.8978 250.82 89.8854 250.895 89.8451C250.97 89.8049 251.029 89.7393 251.06 89.66C251.078 89.6234 251.089 89.5835 251.091 89.5427C251.094 89.5019 251.088 89.461 251.073 89.4226C251.059 89.3842 251.038 89.3491 251.01 89.3194C250.981 89.2897 250.948 89.2661 250.91 89.25C250.331 89.1138 249.728 89.1191 249.152 89.2653C248.576 89.4115 248.044 89.6944 247.6 90.09C247.529 90.1405 247.479 90.2148 247.459 90.2994C247.439 90.384 247.45 90.473 247.49 90.55C247.517 90.599 247.559 90.6377 247.61 90.66Z" fill="#263238"/>
<path d="M260 87.1C260.058 87.076 260.109 87.0361 260.146 86.9849C260.183 86.9337 260.205 86.8731 260.21 86.81C260.215 86.7619 260.211 86.7132 260.197 86.6668C260.184 86.6204 260.161 86.5772 260.13 86.5398C260.099 86.5025 260.061 86.4718 260.018 86.4494C259.975 86.4271 259.928 86.4137 259.88 86.41C259.191 86.3316 258.494 86.4217 257.847 86.6726C257.201 86.9234 256.625 87.3275 256.17 87.85C256.105 87.9171 256.069 88.0067 256.069 88.1C256.069 88.1933 256.105 88.2829 256.17 88.35C256.207 88.3799 256.25 88.4022 256.296 88.4154C256.342 88.4286 256.39 88.4325 256.437 88.4269C256.485 88.4213 256.531 88.4064 256.572 88.3828C256.614 88.3593 256.651 88.3278 256.68 88.29C257.065 87.8664 257.544 87.5403 258.08 87.3386C258.615 87.1369 259.191 87.0654 259.76 87.13C259.841 87.1507 259.926 87.14 260 87.1Z" fill="#263238"/>
<path d="M271.23 192.21C270.87 191.97 237.23 193.55 227.37 193.73C223.94 194.05 223.66 189.48 224.44 188.97L269.99 188.73H270.04L270.37 188.24C270.861 189.011 271.282 189.824 271.63 190.67C271.717 190.938 271.725 191.225 271.654 191.498C271.584 191.771 271.436 192.018 271.23 192.21Z" fill="#FFB46A"/>
<path opacity="0.2" d="M271.23 192.21C270.87 191.97 237.23 193.55 227.37 193.73C223.94 194.05 223.66 189.48 224.44 188.97L269.99 188.73H270.04L270.37 188.24C270.861 189.011 271.282 189.824 271.63 190.67C271.717 190.938 271.725 191.225 271.654 191.498C271.584 191.771 271.436 192.018 271.23 192.21Z" fill="black"/>
<path d="M290 333.81H289.94C289.874 333.803 289.811 333.782 289.754 333.75C289.696 333.717 289.646 333.674 289.606 333.621C289.566 333.569 289.536 333.509 289.52 333.446C289.503 333.382 289.5 333.315 289.51 333.25L290.51 325.01C290.516 324.944 290.536 324.879 290.567 324.821C290.599 324.762 290.643 324.711 290.695 324.669C290.748 324.628 290.808 324.598 290.872 324.581C290.937 324.564 291.004 324.56 291.07 324.57C291.201 324.587 291.32 324.656 291.401 324.761C291.481 324.866 291.517 324.999 291.5 325.13L290.5 333.37C290.485 333.492 290.426 333.604 290.334 333.685C290.242 333.767 290.123 333.811 290 333.81Z" fill="#FFB46A"/>
<path d="M292 317.32H291.94C291.874 317.312 291.81 317.292 291.752 317.26C291.695 317.228 291.644 317.184 291.603 317.132C291.562 317.08 291.532 317.02 291.514 316.956C291.496 316.892 291.491 316.826 291.5 316.76L292.2 311.08C293.911 297.123 294.49 283.05 293.93 269C293.926 268.935 293.935 268.869 293.956 268.808C293.978 268.746 294.012 268.689 294.055 268.641C294.099 268.593 294.152 268.553 294.211 268.526C294.271 268.498 294.335 268.482 294.4 268.48C294.466 268.477 294.531 268.488 294.593 268.51C294.654 268.533 294.711 268.567 294.759 268.612C294.808 268.657 294.847 268.71 294.874 268.77C294.902 268.83 294.917 268.894 294.92 268.96C295.489 283.06 294.911 297.183 293.19 311.19L292.5 316.87C292.485 316.993 292.427 317.106 292.335 317.189C292.243 317.272 292.124 317.318 292 317.32Z" fill="#FFB46A"/>
<path d="M219.45 296.07L218.45 295.93C218.45 295.77 220.62 280.48 220.97 268.6C221.341 255.947 220.682 243.286 219 230.74L220 230.61C221.691 243.202 222.36 255.91 222 268.61C221.63 280.56 219.47 295.91 219.45 296.07Z" fill="#FFB46A"/>
<path d="M219 230.74C218.45 226.63 217.79 222.57 217 218.67L218 218.48C218.76 222.4 219.43 226.48 220 230.61L219 230.74Z" fill="#FFB46A"/>
<path d="M216 213.44C215.36 210.6 214.56 207.26 213.5 203.94L214.5 203.63C215.57 206.99 216.37 210.36 217.01 213.22L216 213.44Z" fill="#FFB46A"/>
<rect x="25" y="42" width="71" height="72" fill="#FFC887" fill-opacity="0.1"/>
</svg>
