<svg width="80" height="49" viewBox="0 0 80 49" fill="none" xmlns="http://www.w3.org/2000/svg">
<path d="M40 0.0800781C29.3334 0.0800781 22.6666 5.42541 20 16.1158C24 10.7704 28.6666 8.76597 34 10.1024C37.0428 10.8647 39.2178 13.0774 41.6253 15.5263C45.5472 19.5161 50.0859 24.1336 60 24.1336C70.6666 24.1336 77.3334 18.7883 80 8.09792C76 13.4433 71.3334 15.4477 66 14.1113C62.9572 13.349 60.7822 11.1362 58.3747 8.68736C54.4528 4.69754 49.9141 0.0800781 40 0.0800781ZM20 24.1336C9.33344 24.1336 2.66656 29.4789 0 40.1693C4 34.824 8.66656 32.8195 14 34.1559C17.0428 34.9182 19.2178 37.131 21.6253 39.5798C25.5472 43.5697 30.0859 48.1871 40 48.1871C50.6666 48.1871 57.3334 42.8418 60 32.1514C56 37.4968 51.3334 39.5012 46 38.1648C42.9572 37.4025 40.7822 35.1898 38.3747 32.7409C34.4528 28.7511 29.9141 24.1336 20 24.1336Z" fill="url(#paint0_linear)"/>
<defs>
<linearGradient id="paint0_linear" x1="-2.2224" y1="15.4743" x2="66.9474" y2="55.2677" gradientUnits="userSpaceOnUse">
<stop stop-color="#2298BD"/>
<stop offset="1" stop-color="#0ED7B5"/>
</linearGradient>
</defs>
</svg>
